<?xml version="1.0" standalone="no"?>
<!DOCTYPE svg PUBLIC "-//W3C//DTD SVG 1.1//EN" "http://www.w3.org/Graphics/SVG/1.1/DTD/svg11.dtd" >
<svg xmlns="http://www.w3.org/2000/svg">
<metadata>Generated by IcoMoon</metadata>
<defs>
<font id="icomoon" horiz-adv-x="1024">
<font-face units-per-em="1024" ascent="960" descent="-64" />
<missing-glyph horiz-adv-x="1024" />
<glyph unicode="&#x20;" horiz-adv-x="512" d="" />
<glyph unicode="&#xe900;" glyph-name="academic-enrichment" d="M198.194 551.089c-16.333 0-32.299 4.796-45.88 13.783-13.58 8.984-24.165 21.757-30.415 36.7s-7.885 31.389-4.699 47.253c3.186 15.864 11.051 30.436 22.6 41.874s26.264 19.227 42.283 22.382c16.019 3.156 32.623 1.536 47.713-4.654s27.987-16.672 37.061-30.121c9.074-13.449 13.918-29.261 13.918-45.436-0.026-21.683-8.735-42.47-24.216-57.799-15.481-15.333-36.471-23.958-58.364-23.982zM198.194 681.94c-9.8 0-19.38-2.878-27.528-8.27s-14.499-13.055-18.249-22.021c-3.75-8.966-4.732-18.832-2.819-28.351s6.631-18.261 13.56-25.125c6.929-6.861 15.758-11.534 25.37-13.428s19.574-0.922 28.628 2.792c9.054 3.714 16.792 10.004 22.237 18.074s8.35 17.555 8.35 27.26c0 13.014-5.22 25.495-14.512 34.697s-21.895 14.372-35.036 14.372zM148.645 207.602h-132.129c-4.38 0-8.581 1.724-11.679 4.792-3.097 3.065-4.837 7.226-4.837 11.564-0.049 45.305 8.681 90.197 25.716 132.243l53.958 133.615c7.22 17.869 20.527 32.669 37.615 41.837 17.087 9.165 36.876 12.117 55.932 8.346 11.109-2.215 21.646-6.649 30.968-13.032 9.322-6.38 17.235-14.575 23.255-24.081l21.412-33.942c26.531-42.059 70.216-70.321 119.453-77.281 13.008-1.823 24.832-8.465 33.089-18.582s12.332-22.958 11.404-35.936c-0.928-12.977-6.793-25.122-16.404-33.983-9.615-8.864-22.269-13.786-35.403-13.776h-129.768c-3.069-0.003-6.078 0.843-8.689 2.441s-4.721 3.884-6.093 6.605c-8.829 17.487-34.821 13.745-38.36-5.523l-13.203-71.878c-0.692-3.765-2.696-7.171-5.662-9.626s-6.708-3.799-10.573-3.802zM41.275 296.281c-6.949-29.986 17.974-55.965 48.754-55.965 25.969 0 48.232 18.548 52.925 44.087l22.488 122.406c0.622 3.376 2.301 6.472 4.798 8.851s5.686 3.922 9.117 4.407c3.43 0.485 6.927-0.113 9.997-1.703 3.069-1.594 5.556-4.103 7.106-7.171 27.58-54.637 83.571-89.091 144.774-89.091h19.76c4.762 0.007 9.346 1.802 12.827 5.018 3.485 3.215 5.608 7.619 5.949 12.326 0.341 4.704-1.126 9.359-4.113 13.039-2.983 3.676-7.26 6.096-11.974 6.779l-85.255 12.070c-2.379 0.341-4.655 1.188-6.67 2.488s-3.717 3.017-4.991 5.038l-67.336 106.691c-4.91 7.779-11.899 14.056-20.191 18.138s-17.564 5.813-26.789 4.997c-9.224-0.816-18.039-4.147-25.469-9.622s-13.183-12.882-16.623-21.395l-53.975-133.601c-6.294-15.541-11.341-31.519-15.111-47.783zM825.805 551.089c-16.333 0-32.297 4.796-45.879 13.783-13.578 8.984-24.163 21.757-30.413 36.7-6.253 14.944-7.888 31.389-4.7 47.253 3.185 15.864 11.052 30.436 22.6 41.874 11.551 11.438 26.262 19.227 42.284 22.382 16.019 3.156 32.621 1.536 47.712-4.654s27.986-16.672 37.062-30.121c9.073-13.449 13.916-29.261 13.916-45.436-0.027-21.683-8.735-42.47-24.218-57.799-15.479-15.333-36.468-23.958-58.365-23.982zM825.805 681.94c-9.8 0-19.377-2.878-27.525-8.27s-14.5-13.055-18.251-22.021c-3.748-8.966-4.731-18.832-2.819-28.351s6.632-18.261 13.561-25.125c6.929-6.861 15.759-11.534 25.371-13.428 9.609-1.894 19.572-0.922 28.628 2.792 9.052 3.714 16.79 10.004 22.234 18.074s8.352 17.555 8.352 27.26c0 13.014-5.222 25.495-14.513 34.697s-21.897 14.372-35.038 14.372zM1007.483 207.602h-132.127c-3.867 0.003-7.608 1.348-10.575 3.802s-4.97 5.861-5.663 9.626l-13.21 71.916c-3.533 19.231-29.481 22.948-38.27 5.485-1.379-2.731-3.502-5.028-6.127-6.625-2.628-1.597-5.656-2.437-8.738-2.42h-129.768c-13.138-0.024-25.798 4.891-35.424 13.749-9.626 8.861-15.497 21.006-16.432 33.987s3.137 25.829 11.394 35.953c8.257 10.121 20.084 16.766 33.096 18.589 49.241 6.96 92.928 35.219 119.47 77.271l21.429 33.952c6.021 9.506 13.933 17.702 23.255 24.081 9.322 6.383 19.859 10.817 30.969 13.032 19.057 3.782 38.847 0.833 55.938-8.335 17.091-9.165 30.396-23.972 37.608-41.847l53.958-133.615c17.043-42.045 25.777-86.938 25.733-132.243 0-4.338-1.741-8.499-4.837-11.564-3.099-3.069-7.298-4.792-11.68-4.792zM881.046 284.402c4.693-25.539 26.955-44.087 52.924-44.087 30.781 0 55.706 25.979 48.756 55.965-3.772 16.265-8.82 32.242-15.111 47.783l-53.975 133.601c-3.437 8.516-9.189 15.92-16.616 21.398-7.431 5.475-16.244 8.806-25.467 9.622-9.226 0.816-18.497-0.915-26.788-4.997-8.291-4.086-15.278-10.363-20.186-18.142l-67.352-106.691c-1.273-2.021-2.976-3.738-4.99-5.038s-4.291-2.147-6.67-2.488l-85.255-12.070c-4.714-0.683-8.991-3.103-11.974-6.779-2.987-3.68-4.454-8.335-4.113-13.039 0.341-4.707 2.464-9.11 5.949-12.326 3.482-3.215 8.066-5.011 12.827-5.018h19.76c61.204 0 117.193 34.454 144.777 89.091 1.55 3.069 4.035 5.577 7.103 7.171 3.072 1.591 6.567 2.188 9.998 1.703s6.618-2.028 9.117-4.407c2.499-2.379 4.175-5.475 4.799-8.851l22.487-122.406zM735.939 452.908c-8.451-3.273-17.964 0.891-21.296 9.318l-6.888 17.425c-5.335 13.5-18.377 22.368-32.894 22.368h-332.882c-10.194 0-19.353-6.229-23.098-15.708l-3.059-7.745c-3.326-8.417-12.825-12.571-21.263-9.295-8.51 3.301-12.708 12.899-9.356 21.388l13.293 33.669c1.205 3.055 3.309 5.68 6.040 7.533 2.73 1.857 5.96 2.857 9.271 2.871h396.385c3.328 0 6.574-0.99 9.322-2.847 2.744-1.857 4.864-4.489 6.072-7.557l19.743-49.975c3.366-8.516-0.85-18.142-9.39-21.446zM512 142.179c-26.272 0.024-51.463 10.373-70.042 28.771s-29.030 43.346-29.054 69.366v16.357c0 26.027 10.438 50.988 29.024 69.393s43.79 28.747 70.072 28.747c26.283 0 51.487-10.342 70.072-28.747s29.024-43.366 29.024-69.393v-16.357c-0.024-26.020-10.476-50.968-29.054-69.366s-43.769-28.747-70.042-28.771zM512 322.099c-17.521 0-34.324-6.895-46.715-19.162-12.39-12.271-19.35-28.911-19.35-46.264v-16.357c0-17.35 6.96-33.993 19.35-46.264 12.39-12.268 29.194-19.162 46.715-19.162s34.324 6.895 46.715 19.162c12.39 12.271 19.35 28.914 19.35 46.264v16.357c0 17.353-6.96 33.993-19.35 46.264-12.39 12.268-29.194 19.162-46.715 19.162zM693.678-21.228c0-9.12-7.397-16.517-16.517-16.517s-16.517 7.397-16.517 16.517v65.266c0 13.015-5.219 25.494-14.51 34.697-9.295 9.202-21.897 14.374-35.038 14.374h-198.192c-13.141 0-25.743-5.171-35.038-14.374-9.291-9.202-14.51-21.681-14.51-34.697v-65.266c0-9.12-7.397-16.517-16.517-16.517-9.122 0-16.516 7.397-16.516 16.517v65.266c0.026 21.681 8.735 42.469 24.217 57.801 15.479 15.329 36.471 23.955 58.365 23.982h198.192c21.893-0.027 42.885-8.653 58.365-23.982 15.483-15.333 24.19-36.12 24.218-57.801v-65.266zM858.839 60.396h-132.291c-9.032 0-16.357 7.322-16.357 16.357 0 9.032 7.325 16.357 16.357 16.357h77.138c21.337 0 38.636 17.299 38.636 38.636 0 4.861-0.918 9.68-2.703 14.199l-41.762 105.68c-3.366 8.516 0.85 18.142 9.387 21.446 8.455 3.273 17.964-0.891 21.296-9.322l45.694-115.616c0.744-1.898 1.126-3.919 1.123-5.953v-65.427c0-4.338-1.741-8.499-4.84-11.568-3.096-3.065-7.298-4.789-11.677-4.789zM313.807 76.752c0-9.035-7.323-16.357-16.356-16.357h-132.289c-4.38 0-8.581 1.724-11.678 4.789-3.098 3.069-4.838 7.229-4.838 11.568v65.427c-0.003 2.034 0.378 4.055 1.123 5.953l45.691 115.613c3.332 8.434 12.844 12.599 21.301 9.329 8.545-3.308 12.762-12.94 9.394-21.46l-41.771-105.667c-1.788-4.523-2.706-9.342-2.706-14.203 0-21.34 17.298-38.636 38.635-38.636h77.138c9.033 0 16.356-7.325 16.356-16.357zM974.452 534.893c0-9.124-7.397-16.517-16.517-16.517s-16.517 7.393-16.517 16.517v187.938c0 112.918-91.535 204.456-204.455 204.456h-449.926c-112.918 0-204.456-91.538-204.456-204.456v-187.938c0-9.124-7.395-16.517-16.516-16.517s-16.516 7.393-16.516 16.517v408.75c0 4.338 1.74 8.498 4.837 11.566s7.298 4.791 11.679 4.791h891.87c4.379 0 8.581-1.723 11.68-4.791 3.096-3.067 4.837-7.228 4.837-11.566v-408.75zM353.563 632.759c-6.403-6.343-16.723-6.343-23.127 0-6.493 6.43-6.493 16.923 0 23.353l103.822 102.819c3.099 3.067 7.298 4.789 11.677 4.789s8.581-1.722 11.677-4.789c48.418-47.949 126.423-47.949 174.841 0l104.049 103.043c6.403 6.343 16.722 6.343 23.125 0 6.496-6.43 6.496-16.922 0-23.353l-202.919-200.958c-3.096-3.066-7.298-4.789-11.677-4.789s-8.578 1.723-11.677 4.789l-35.451 35.109c-28.781 28.504-75.151 28.504-103.936 0l-40.404-40.014zM776.257 780.239c0-9.121-7.393-16.516-16.514-16.516-9.124 0-16.517 7.395-16.517 16.516v24.375c0 22.583-18.309 40.891-40.892 40.891h-25.334c-9.032 0-16.357 7.323-16.357 16.356s7.325 16.357 16.357 16.357h82.743c4.379 0 8.581-1.723 11.677-4.791 3.099-3.067 4.837-7.228 4.837-11.566v-81.623zM165.161 861.861c0 9.033 7.323 16.357 16.357 16.357h165.481c9.032 0 16.357-7.323 16.357-16.357s-7.325-16.356-16.357-16.356h-165.481c-9.033 0-16.357 7.323-16.357 16.356zM165.161 796.435c0 9.033 7.323 16.356 16.357 16.356h82.9c9.033 0 16.356-7.323 16.356-16.356s-7.323-16.356-16.356-16.356h-82.9c-9.033 0-16.357 7.323-16.357 16.356z" />
<glyph unicode="&#xe901;" glyph-name="address" horiz-adv-x="1229" d="M819.2 10.67l-409.6 117.33v823.467l409.6-117.333v-823.463zM887.467 838.4l270.937 108.8c31.997 12.8 70.397-10.667 70.397-46.933v-714.67c0-21.327-12.8-40.53-34.133-46.927l-307.2-123.74v823.47zM32 823.467l309.333 123.733v-823.467l-273.067-108.803c-32-12.793-68.267 10.67-68.267 46.94v714.663c0 21.333 10.667 40.533 32 46.933z" />
<glyph unicode="&#xe902;" glyph-name="all" horiz-adv-x="1229" d="M0 874.667c0 45.333 37.333 85.333 85.333 85.333h1024c45.336 0 85.333-40 85.333-85.333 0-48-39.997-85.333-85.333-85.333h-1024c-48 0-85.333 37.334-85.333 85.333zM0 448c0 45.333 37.333 85.333 85.333 85.333h1024c45.336 0 85.333-40 85.333-85.333 0-48-39.997-85.333-85.333-85.333h-1024c-48 0-85.333 37.334-85.333 85.333zM1109.333-64h-1024c-48 0-85.333 37.335-85.333 85.333 0 45.336 37.333 85.333 85.333 85.333h1024c45.336 0 85.333-39.997 85.333-85.333 0-47.998-39.997-85.333-85.333-85.333z" />
<glyph unicode="&#xe903;" glyph-name="arrow-bottom" horiz-adv-x="1792" d="M896-64c-36 0-68 12-92 36l-640 640c-52 48-52 132 0 180 48 52 132 52 180 0l552-548 547.994 548c48 52 132.006 52 180.006 0 52.006-48 52.006-132 0-180l-640-640c-24-24-56-36-88-36z" />
<glyph unicode="&#xe904;" glyph-name="arrow-double-right" horiz-adv-x="1182" d="M605.538 462.769c32-29.538 32-81.231 0-110.769l-393.846-393.85c-14.769-14.761-34.462-22.15-54.154-22.15-22.154 0-41.846 7.389-56.615 22.15-32 29.538-32 81.235 0 110.773l337.231 339.692-337.231 337.231c-32 29.538-32 81.231 0 110.769 29.538 32 81.231 32 110.769 0l393.846-393.846zM1078.154 462.769c32.004-29.538 32.004-81.231 0-110.769l-393.846-393.85c-14.769-14.761-34.462-22.15-54.154-22.15-22.154 0-41.846 7.389-56.615 22.15-32 29.538-32 81.235 0 110.773l337.231 339.692-337.231 337.231c-32 29.538-32 81.231 0 110.769 29.538 32 81.231 32 110.769 0l393.846-393.846z" />
<glyph unicode="&#xe905;" glyph-name="arrow-left" horiz-adv-x="1216" d="M1181.498 416c0-45-34.995-80-77.498-80h-767.5l262.5-264.998c32.5-30.003 32.5-82.502 0-112.499-15-15.002-35-22.502-55-22.502-22.5 0-42.5 7.501-57.5 22.502l-400 399.997c-32.5 30-32.5 82.5 0 112.5l400 400c30 32.5 82.5 32.5 112.5 0 32.5-30.001 32.5-82.5 0-112.5l-262.5-262.5h767.5c42.502 0 77.498-37.5 77.498-80z" />
<glyph unicode="&#xe906;" glyph-name="arrow-long-left" horiz-adv-x="1615" d="M13.474 421.155c-9.298 9.161-9.411 24.544-0.248 33.843l464.257 471.103c3.033 6.176 9.184 6.221 18.416 6.289 6.152 0.045 12.331-2.987 15.451-9.118 9.299-9.163 9.413-24.547 0.248-33.845l-421.496-427.713 1467.654 10.744c12.308 0.091 24.682-9.051 24.793-24.434 0.091-12.308-12.127-24.706-24.434-24.797l-1467.652-10.74 427.713-421.498c9.295-9.161 9.409-24.544 0.248-33.843-9.165-9.299-24.548-9.413-33.847-0.248l-471.103 464.258z" />
<glyph unicode="&#xe907;" glyph-name="arrow-long-right" horiz-adv-x="1615" d="M1569.233 463.384c9.228-9.232 9.228-24.615 0-33.847l-467.692-467.692c-3.080-6.152-9.232-6.152-18.464-6.152-6.152 0-12.308 3.076-15.384 9.232-9.232 9.232-9.232 24.615 0 33.847l424.613 424.613h-1467.691c-12.308 0-24.615 9.232-24.615 24.615 0 12.308 12.308 24.615 24.615 24.615h1467.691l-424.613 424.615c-9.232 9.231-9.232 24.615 0 33.846s24.615 9.231 33.847 0l467.692-467.693z" />
<glyph unicode="&#xe908;" glyph-name="arrow-right" horiz-adv-x="1182" d="M1078.154 352l-393.846-393.85c-14.769-14.761-34.462-22.15-54.154-22.15-22.154 0-41.846 7.389-56.615 22.15-32 29.538-32 81.235 0 110.773l258.462 260.923h-753.231c-44.308 0-78.769 34.462-78.769 78.769 0 41.846 34.462 78.769 78.769 78.769h753.231l-258.462 258.462c-32 29.538-32 81.231 0 110.769 29.538 32 81.231 32 110.769 0l393.846-393.846c32.004-29.538 32.004-81.231 0-110.769z" />
<glyph unicode="&#xe909;" glyph-name="arrow-right-top" d="M853.632 669.181l-733.181-733.181-120.451 120.448 733.096 733.183h-646.123v170.369h937.027v-937.028h-170.368v646.209z" />
<glyph unicode="&#xe90a;" glyph-name="be" horiz-adv-x="1489" d="M590.545 470.546c109.454-30.546 162.909-114.546 162.909-226.546 0-183.273-152.728-262.18-318.182-262.18h-435.273v901.090h425.091c152.727 0 287.636-43.273 287.636-224 0-89.091-43.272-147.636-122.182-188.363zM196 730.182v-211.273h201.090c71.273 0 122.182 30.545 122.182 106.909 0 84-63.636 104.363-134.908 104.363h-188.364zM409.818 134.545c78.909 0 145.091 28 145.091 119.637s-53.455 129.818-142.545 129.818h-216.364v-249.455h213.818zM1321.090 748v89.091h-364.004v-89.091h364.004zM1466.182 297.454c0-10.181-2.541-22.909-2.541-33.091h-470.91c0-104.363 55.994-165.454 160.358-165.454 53.453 0 124.733 28 142.55 84h157.817c-48.361-147.636-150.184-218.907-305.459-218.907-206.178 0-335.997 139.998-335.997 343.635 0 196 134.911 346.182 335.997 346.182 203.636 0 318.185-162.909 318.185-356.364zM992.731 378.909h292.724c-7.633 86.546-53.453 137.455-145.091 137.455-83.996 0-142.541-53.455-147.633-137.455z" />
<glyph unicode="&#xe90b;" glyph-name="calander" d="M768 857.6h204.8c13.582 0 26.605-5.395 36.203-14.996 9.607-9.602 14.997-22.625 14.997-36.204v-819.2c0-13.582-5.39-26.605-14.997-36.203-9.598-9.607-22.621-14.997-36.203-14.997h-921.6c-13.579 0-26.602 5.39-36.204 14.997-9.602 9.598-14.996 22.621-14.996 36.203v819.2c0 13.579 5.394 26.602 14.996 36.204s22.625 14.996 36.204 14.996h204.8v102.4h102.4v-102.4h307.2v102.4h102.4v-102.4zM665.6 755.2h-307.2v-102.4h-102.4v102.4h-153.6v-204.8h819.2v204.8h-153.6v-102.4h-102.4v102.4zM921.6 448h-819.2v-409.6h819.2v409.6z" />
<glyph unicode="&#xe90c;" glyph-name="calander-2" horiz-adv-x="939" d="M304 832h288v80c0 26 20 48 48 48 26 0 48-22 48-48v-80h80c70 0 128-58 128-128v-640c0-72.004-58-128-128-128h-640c-72 0-128 55.996-128 128v640c0 70 56 128 128 128h80v80c0 26 20 48 48 48 26 0 48-22 48-48v-80zM96 464h160v112h-160v-112zM96 368v-128h160v128h-160zM352 368v-128h192v128h-192zM640 368v-128h160v128h-160zM800 576h-160v-112h160v112zM800 144h-160v-112h128c16 0 32 14.003 32 32v80zM544 144h-192v-112h192v112zM256 144h-160v-80c0-17.997 14-32 32-32h128v112zM544 576h-192v-112h192v112z" />
<glyph unicode="&#xe90d;" glyph-name="call" d="M483.98 566.738c39.598 3.774 77.308-9.428 103.708-35.825 27.341-27.341 40.539-65.054 36.769-104.653-0.944-6.599-4.714-14.143-9.428-18.857-6.599-6.599-16.027-10.369-26.4-9.428-16.968 1.889-30.166 16.972-28.281 35.829s-3.774 37.714-17.916 51.852c-13.198 13.202-32.055 18.857-50.912 16.972-18.853-1.885-33.94 11.313-35.825 28.285-0.944 17.912 11.313 33.94 28.285 35.825zM471.723 694.019c77.312 7.543 151.791-17.913 206.476-72.596 54.682-54.684 81.082-130.108 72.594-206.475-1.885-7.543-4.714-14.143-10.369-19.797-6.599-6.603-15.087-9.428-25.456-8.488-17.912 0.944-30.17 16.972-28.285 33.944 5.659 58.451-15.083 115.022-54.682 154.62-40.543 40.54-96.169 60.339-154.62 54.682-17.916-0.942-33.944 11.314-34.884 29.227-1.885 16.971 10.369 32.998 29.226 34.884zM459.465 821.298c115.026 11.314 226.274-26.399 309.244-109.366 82.022-82.025 121.621-195.162 109.363-309.243-0.941-8.484-3.77-15.083-8.484-19.797-6.599-6.599-16.027-10.373-26.4-9.428-16.968 1.885-30.17 16.972-29.226 34.884 9.428 96.165-23.571 191.39-90.51 258.329-67.88 67.882-162.164 99.938-258.329 90.51-17.912-0.943-32.999 12.257-34.884 29.227-0.944 17.913 11.313 33.941 29.226 34.884zM351.986 447.947l-54.683-45.257c33.941-71.653 91.453-129.164 163.106-163.104l45.253 54.682c8.488 10.373 24.515 15.087 37.714 9.428l110.308-48.082c15.087-5.659 22.63-22.627 19.801-36.769l-24.515-103.708c-2.825-14.143-16.968-24.515-32.055-24.515-258.329 0-468.575 210.246-468.575 468.579 0 15.083 10.371 29.226 24.513 32.054l103.709 24.513c14.142 2.828 31.113-4.714 36.77-19.799l48.083-110.31c5.657-13.198 0.942-29.226-9.428-37.71z" />
<glyph unicode="&#xe90e;" glyph-name="call-2" horiz-adv-x="1073" d="M638.479 588.952c43.808-36.19 68.569-87.619 68.569-140.952 0-55.237-24.761-106.667-68.569-142.858-7.621-5.715-19.051-9.523-28.574-9.523-13.332 0-26.668 5.715-36.191 17.145-15.238 19.046-13.332 47.616 7.621 64.761 20.953 17.14 34.284 41.906 34.284 70.476 0 26.667-13.332 51.429-34.284 68.571s-22.86 45.714-7.621 64.762c17.145 19.047 45.714 22.857 64.766 7.619zM754.668 729.905c85.714-70.476 135.236-171.429 135.236-281.905s-49.523-213.333-135.236-281.902c-9.528-5.715-19.051-9.528-30.476-9.528-13.336 0-24.761 5.715-34.289 17.145-17.14 19.046-13.332 47.621 5.715 62.859 64.766 53.331 100.952 131.428 100.952 211.427 0 81.905-36.186 158.095-100.952 211.429-19.046 17.143-22.855 45.714-5.715 64.762 15.238 19.048 43.813 22.857 64.766 5.714zM870.858 870.857c127.62-104.762 201.904-255.238 201.904-422.857 0-165.712-74.284-320-201.904-422.858-9.523-7.617-19.046-11.425-28.574-11.425-13.332 0-26.663 5.71-36.191 17.14-15.233 19.046-13.332 47.621 5.715 64.761 106.667 87.62 169.526 217.147 169.526 352.383 0 137.143-62.859 264.762-169.526 352.381-19.046 17.143-20.948 45.714-5.715 64.762 17.145 19.047 45.719 22.857 64.766 5.714zM385.143 602.286l-100.953 9.524c-38.095-106.667-38.095-222.856 0-329.522l100.953 9.523c19.047 1.902 40-9.523 47.619-28.574l62.859-159.998c9.523-20.953 0-45.714-17.145-57.144l-129.524-79.999c-17.143-11.43-41.905-7.621-57.143 7.617-260.953 260.954-260.953 685.716 0 946.668 15.238 15.238 40 19.048 57.143 7.619l129.524-80c17.145-11.428 26.668-36.19 17.145-57.143l-62.859-160c-7.619-19.047-28.572-30.476-47.619-28.572z" />
<glyph unicode="&#xe90f;" glyph-name="call-us" horiz-adv-x="967" d="M908.447 215.108l-42.667-179.553c-5.336-26.67-26.67-44.442-53.339-44.442-447.997 1.775-812.442 366.217-812.442 814.219 0 26.667 16 48 42.667 53.333l179.556 42.667c24.889 5.333 51.556-8.889 62.222-32l83.556-193.778c8.889-23.111 3.556-49.778-16-64l-96-78.222c60.444-122.667 160-222.219 284.444-282.67l78.222 96.006c14.222 17.772 40.892 24.883 64 15.997l193.775-83.558c23.114-12.442 37.336-39.105 32.006-64z" />
<glyph unicode="&#xe910;" glyph-name="call-us-2" d="M381.999 512l2.001-224c0-36-29.999-64-64-64h-32c-72 0-128 56-128 128v93.999c0 72 56 130.001 128 130.001h29.999c34.001 0 64-29.999 64-64zM512 960c285.999 0 501.999-240 512-512v-288c0-98.001-80-176-176-176h-221.999c-16-29.999-48-48-82.001-48h-66.001c-57.999 0-104 52-93.999 114.001 10.001 45.999 52 77.999 98.001 77.999h61.999c34.001 0 66.001-20 82.001-48h221.999c44 0 80 34.001 80 80v288c0 228-188 414-416 414-229.999 0-416-186-416-414v-80c0-28-26-48-50-48-26 0-46 20-46 48v80c8 272 224 512 512 512zM736 224h-32c-36 0-64 28-64 64v221.999c0 36.002 28 66.001 64 66.001h32c69.999 0 128-58.001 128-130.001v-93.999c0-72-58.001-128-128-128z" />
<glyph unicode="&#xe911;" glyph-name="career-dev" horiz-adv-x="931" d="M824.734 406.858c-116.876 0-238.955-15.995-343.34-52.564l-1.859-311.445c105.411 35.547 228.278 51.505 345.2 51.505 1.124 0 1.455-0.009 2.53-0.028v312.532h-2.53zM380.786 275.058c-61.405 14.615-128.908 24.010-193.998 27.706-8.364 0.458-15.517-5.951-15.976-14.313-0.458-8.364 5.95-15.518 14.313-15.977 63.421-3.6 128.424-12.691 188.654-26.992 8.166-1.934 16.356 3.116 18.29 11.283 1.936 8.166-3.116 16.356-11.283 18.292zM557.133 141.466c60.025 14.287 125.435 23.403 188.656 26.989 8.364 0.461 14.771 7.615 14.313 15.977-0.461 8.364-7.613 14.771-15.974 14.313-65.306-3.707-132.385-13.072-194.001-27.704-8.166-1.936-13.219-10.124-11.283-18.292 1.934-8.166 10.124-13.217 18.29-11.283zM557.133 245.483c60.020 14.287 125.44 23.405 188.656 26.992 8.364 0.461 14.771 7.615 14.313 15.977-0.461 8.364-7.613 14.771-15.974 14.313-65.303-3.71-132.385-13.077-194.001-27.706-8.166-1.936-13.219-10.126-11.283-18.292 1.934-8.166 10.124-13.217 18.29-11.283zM380.786 171.041c-61.407 14.615-128.903 24.008-193.998 27.706-8.364 0.458-15.517-5.951-15.976-14.313-0.458-8.364 5.95-15.518 14.313-15.977 63.424-3.6 128.422-12.691 188.654-26.992 8.166-1.934 16.356 3.116 18.29 11.283 1.936 8.169-3.116 16.356-11.283 18.292zM451.1 353.738c-106.519 37.595-228.225 53.069-347.456 53.12v-312.532c1.076 0.016 1.41 0.028 2.532 0.028 116.197 0 238.161-15.756 343.072-50.793l1.853 310.177zM857.672 366.171h58.033c8.397 0 15.204-6.805 15.204-15.204v-379.157c0-8.397-6.807-15.204-15.204-15.204h-900.501c-8.397 0-15.204 6.807-15.204 15.204v379.159c0 8.397 6.807 15.206 15.204 15.206h58.034v55.752h0.060c-0.002 8.28 6.662 15.046 14.965 15.144 88.069 1.112 170.176-5.781 251.166-21.853v61.093c-31.018-0.68-89.546-2.085-98.914 3.393-9.681 5.662-15.61 15.372-15.566 26.57l0.442 116.047c0.025 6.514-36.354 6.298-47.375 19.2-6.109 7.152-6.775 17.445-1.73 25.318l65.144 101.689c2.453 3.829 3.347 6.957 3.347 11.544 0 133.133 125.331 190.554 242.246 178.319 37.574-3.619 70.137-14.988 97.441-32.159 29.466-18.535 52.699-43.753 69.413-73.245 42.517-75.007 39.615-193.839 1.983-269.581-30.459-61.312-66.174-66.399-73.705-170.086 80.114 16.675 164.813 24.548 251.585 23.85l8.732-0.040c8.397 0 15.202-6.807 15.202-15.202v-55.759zM73.238 335.765h-42.829v-348.751h870.095v348.751h-42.829v-256.747h-0.061c0-8.446-6.907-15.251-15.323-15.144-70.633 0.896-141.217-4.003-206.334-14.399-60.456-9.649-115.966-23.836-164.394-41.614l-6.172-1.252v0.019c-1.736 0-3.5 0.3-5.227 0.933-109.121 40.127-240.008 57.363-362.754 56.411l-8.97-0.156c-8.394 0-15.202 6.805-15.202 15.202v256.747zM369.834 408.69c34.085-7.873 66.106-17.217 95.623-27.841 26.689 9.607 55.431 18.167 85.897 25.539 4.638 86.558 27.017 116.908 50.765 149.104 9.088 12.321 18.399 24.944 26.54 41.33 33.266 66.958 36.399 174.946-1.152 241.195-30.017 52.959-81.022 84.445-143.863 90.248-52.049 4.808-106.252-3.866-147.828-31.703-38.654-25.879-60.637-65.17-60.637-116.494 0-10.032-2.783-19.454-8.215-27.934l-59.579-93.004c19.722-9.418 48.343-24.348 48.294-36.813l-0.442-116.047h-0.009c0.098-0.112 0.305-0.261 0.607-0.44 2.686-1.571 76.961 1.101 98.797 1.101 8.394 0 15.202-6.805 15.202-15.202v-83.039zM379.939 705.392c-5.215 6.526-4.152 16.044 2.371 21.262 6.526 5.215 16.047 4.151 21.262-2.376l29.563-36.955 88.481 88.479c5.937 5.936 15.56 5.936 21.497 0s5.937-15.561 0-21.498l-100.436-100.438-0.051 0.054c-6.337-6.328-16.903-5.762-22.514 1.254l-40.173 50.218zM518.465 839.682l17.962-10.399 36.99 7.862c6.979 1.479 13.854-2.096 16.817-8.252l16.566-28.695 0.026 0.016 17.14-29.685c3.379-5.837 2.432-12.993-1.85-17.75l-25.272-28.085v-20.766l25.281-28.074c4.675-5.197 5.104-12.733 1.501-18.346l-17.285-29.873-16.654-28.847c-3.354-5.837-10.012-8.595-16.265-7.268l-36.997 7.829-17.957-10.398-11.674-35.926c-2.085-6.414-8.034-10.487-14.431-10.487l-68.554-0.026c-7.098 0-13.063 4.869-14.734 11.448l-11.366 34.984-17.964 10.403-36.99-7.864c-6.979-1.478-13.857 2.099-16.819 8.253l-33.729 58.424c-3.347 5.821-2.39 12.935 1.871 17.669l-0.030 0.028 25.279 28.072v20.771l-25.279 28.073c-4.787 5.319-5.12 13.090-1.24 18.74l33.676 58.329c3.354 5.837 10.012 8.595 16.263 7.268l36.997-7.828 17.964 10.399 11.674 35.921c2.085 6.413 8.034 10.489 14.429 10.486l68.554 0.025c7.101 0 13.065-4.867 14.736-11.449l11.366-34.984zM512.451 808.583c-3.761 2.177-7.575 4.101-11.413 5.757-4.294 1.52-7.857 4.948-9.374 9.615l-10.319 31.756h-46.525l-10.319-31.756-0.028 0.009c-1.313-4.034-4.305-7.496-8.52-9.272-6.656-2.801-17.313-8.581-22.812-13.029-3.475-3.057-8.301-4.49-13.175-3.456l-32.77 6.966-23.238-40.247 21.951-24.377c6.146-6.533 4.054-11.977 3.589-19.392-0.431-6.835-0.179-13.768 0.67-20.564l-0.016-0.002c0.512-4.205-0.728-8.599-3.786-11.997l-22.407-24.888 23.238-40.246 32.77 6.966 0.007-0.044c4.15 0.877 8.641 0.016 12.283-2.749 5.9-4.48 15.933-10.622 22.872-13.342 4.294-1.522 7.857-4.948 9.374-9.616l10.319-31.756h46.525l10.319 31.76 0.028-0.009c1.315 4.033 4.305 7.498 8.525 9.272 6.651 2.8 17.31 8.581 22.805 13.026 3.477 3.056 8.304 4.489 13.177 3.456l32.775-6.968 23.217 40.269-21.93 24.355c-6.16 6.544-4.045 11.999-3.591 19.321 0.428 6.875 0.186 13.784-0.67 20.635l0.016 0.002c-0.512 4.204 0.728 8.6 3.784 11.995l22.391 24.866-11.613 20.113 0.026 0.014-11.629 20.143-32.77-6.966-0.009 0.044c-4.147-0.878-8.639-0.016-12.281 2.748-3.5 2.658-7.326 5.195-11.464 7.588zM255.178 506.335l0.049-0.063c-0.016 0.016-0.081 0.116-0.049 0.063z" />
<glyph unicode="&#xe912;" glyph-name="checkmark" horiz-adv-x="970" d="M0 461.474c0 267.158 216 485.053 485.053 485.053 267.156 0 485.053-217.895 485.053-485.053 0-269.053-217.896-485.053-485.053-485.053-269.053 0-485.053 215.999-485.053 485.053zM702.949 544.842c20.841 20.842 20.841 53.052 0 73.895-20.846 20.842-53.054 20.842-73.895 0l-204.633-204.631-85.263 83.368c-20.842 20.842-53.053 20.842-73.895 0s-20.842-53.053 0-73.895l121.263-121.262c20.842-20.841 53.052-20.841 73.895 0l242.528 242.525z" />
<glyph unicode="&#xe913;" glyph-name="checkmark-2" d="M486 280c-22-22.003-56-22.003-78 0l-128 128c-22 22-22 56 0 78s56 22 78 0l90-88 216 216c22.003 22 56 22 78.003 0 21.997-22 21.997-56 0-78l-256.003-256zM1024 448c0-284-230.003-512-512-512-284 0-512 228-512 512 0 282 228 512 512 512 281.997 0 512-230 512-512zM512 864c-230 0-416-188-416-416 0-230.003 186-416 416-416 228 0 416 185.997 416 416 0 228-188 416-416 416z" />
<glyph unicode="&#xe914;" glyph-name="colum" d="M625.778 561.778v-227.556h-227.556v227.556h227.556zM739.553 561.778h284.447v-227.556h-284.447v227.556zM625.778-64h-227.556v284.447h227.556v-284.447zM739.553-64v284.447h284.447v-227.56c0-15.087-5.994-29.553-16.664-40.223s-25.136-16.664-40.223-16.664h-227.56zM625.778 960v-284.445h-227.556v284.445h227.556zM739.553 960h227.56c15.087 0 29.553-5.994 40.223-16.662s16.664-25.139 16.664-40.226v-227.556h-284.447v284.445zM284.445 561.778v-227.556h-284.445v227.556h284.445zM284.445-64h-227.556c-15.088 0-29.558 5.994-40.226 16.664s-16.662 25.136-16.662 40.223v227.56h284.445v-284.447zM284.445 960v-284.445h-284.445v227.556c0 15.088 5.994 29.558 16.662 40.226s25.139 16.662 40.226 16.662h227.556z" />
<glyph unicode="&#xe915;" glyph-name="comments" horiz-adv-x="1260" d="M387.693 920.615c210.461 0 384-145.846 384-324.923 0-180.923-173.539-324.923-384-324.923-35.078 0-68.308 3.693-101.539 11.077-55.384-35.077-136.615-70.153-238.154-70.153-18.462 0-35.077 9.231-40.615 27.692-7.385 16.616-5.538 35.078 7.385 49.847 1.846 0 42.461 44.308 72 103.385-51.692 55.384-83.077 125.538-83.077 203.077 0 179.077 171.692 324.923 384 324.923zM306.461 368.616c27.693-7.385 53.539-9.231 81.232-9.231 162.462 0 295.385 105.231 295.385 236.308 0 129.23-132.923 236.308-295.385 236.308-164.308 0-295.385-107.077-295.385-236.308 0-66.462 31.384-114.461 59.077-142.154l44.308-46.153-29.538-57.231c-7.385-11.077-14.769-24-22.155-36.923 33.231 9.231 64.616 24 96.001 44.308l31.384 18.462 35.077-7.385zM817.845 682.461c204.926-7.385 367.388-149.539 367.388-323.077 0-77.539-33.233-147.692-84.921-203.075 29.538-59.077 70.152-103.385 71.995-103.385 12.926-14.769 14.769-33.233 7.389-49.845-5.545-18.464-22.158-27.695-40.621-27.695-101.534 0-182.768 35.076-238.151 70.152-33.233-7.381-66.458-11.075-99.69-11.075-151.387 0-282.463 73.846-345.233 180.923 31.385 3.692 62.77 11.077 90.462 22.153 51.692-70.153 145.846-114.461 254.771-114.461 25.844 0 51.688 1.843 79.384 9.232l35.076 7.381 31.382-18.456c31.39-20.307 62.771-35.084 96.004-44.308-7.389 12.918-14.769 25.844-22.158 36.919l-29.538 57.234 44.308 46.152c27.695 27.693 60.928 75.693 60.928 142.154 0 121.847-118.154 221.538-267.697 234.461l1.851 1.846c0 29.538-5.537 59.077-12.926 86.769z" />
<glyph unicode="&#xe916;" glyph-name="community-and-events" horiz-adv-x="931" d="M340.585 380.9c0 8.22-2.081 15.977-5.737 22.744h538.803c6.956 0 12.611 5.655 12.611 12.611v465.172h27.83c6.959 0 12.614 5.654 12.614 12.612v53.349c0 6.958-5.655 12.612-12.614 12.612h-854.206c-6.958 0-12.612-5.654-12.612-12.612v-53.349c0-6.958 5.654-12.612 12.612-12.612h27.83v-145.731c-36.28-4.246-64.552-35.166-64.552-72.582 0-32.14 20.852-59.464 49.733-69.239-41.767-9.27-72.897-44.079-72.897-85.53v-506.307c0-6.959 5.654-12.611 12.612-12.611h207.698c6.958 0 12.613 5.653 12.613 12.611v34.683c0 24.592-18.856 44.835-42.861 47.083v248.499c8.114 0.042 16.9 0.147 26.506 0.251 12.191 0.147 25.708 0.293 40.674 0.377h35.354c26.466 0 47.988 21.504 47.988 47.967zM72.498 934.776h828.983v-28.125h-828.983v28.125zM861.040 881.428v-452.558l-664.651-0.296c-1.114 0.063-2.165 0.105-3.195 0.168 31.971 2.209 61.209 29.575 102.093 67.896 0.107 0.084 0.191 0.189 0.296 0.293l24.993 24.993c16.438 16.438 18.413 41.956 5.928 60.6l52.191 106.95c3.049 6.265 0.463 13.81-5.8 16.859-6.244 3.049-13.81 0.463-16.859-5.802l-49.354-101.148c-17.72 8.113-39.37 4.941-53.937-9.607l-24.93-24.927c-10.972-10.785-30.626-24.257-42.544-28.947-10.089 28.23-35.208 50.176-66.57 57.658 29.386 9.481 50.679 37.080 50.679 69.576 0 34.579-24.131 63.607-56.438 71.174v147.139l748.1-0.021zM302.75 571.93c8.869-8.869 8.869-23.289 0-32.161l-24.867-24.867c-41.747-39.117-65.435-60.283-87.821-61.019v54.44c0 0.905-0.042 1.787-0.063 2.672 25.644 7.775 55.177 35.523 55.577 35.921l24.993 24.993c8.89 8.893 23.31 8.893 32.182 0.021zM48.388 663.114c0 26.401 21.482 47.884 47.883 47.884s47.883-21.483 47.883-47.884c0-26.401-21.482-47.884-47.883-47.884s-47.883 21.483-47.883 47.884zM164.859 83.996h-51.583v207.486h51.583v-207.486zM88.052 83.996h-62.828v207.486h62.828v-207.486zM127.822 14.629h-102.577v44.12h80.527c12.17 0 22.071-9.9 22.071-22.070v-22.051h-0.021zM207.719 36.701v-22.072h-54.673v22.072c0 7.966-1.997 15.469-5.486 22.070h38.088c12.17 0 22.071-9.9 22.071-22.070zM292.617 358.158h-35.416c-15.113-0.084-28.672-0.23-40.906-0.379-51.772-0.61-80.296-0.945-95.178 7.042-13.137 7.042-19.801 22.849-34.872 61.084-3.763 9.544-8.030 20.368-13.032 32.496-2.648 6.433-10.026 9.502-16.458 6.854s-9.501-10.026-6.852-16.458c4.918-11.96 9.165-22.682 12.885-32.14 15.87-40.211 24.614-62.366 46.412-74.075 13.264-7.105 30.016-9.5 55.661-10.131v-15.765h-139.635v191.637c0 34.6 31.32 62.746 69.807 62.746s69.807-28.146 69.807-62.746v-68.587c-5.003 7.903-9.438 22.030-16.185 43.615-1.787 5.697-3.721 11.878-5.886 18.646-2.123 6.642-9.207 10.301-15.849 8.176-6.642-2.122-10.3-9.228-8.177-15.849 2.144-6.705 4.057-12.842 5.823-18.497 16.879-53.916 21.966-70.186 70.942-72.434 0.21 0 0.399-0.021 0.631-0.021l61.357 0.293h35.081c12.549 0 22.744-10.193 22.744-22.742 0-12.551-10.152-22.765-22.703-22.765zM188.086 812.44c0 6.958 5.654 12.612 12.612 12.612h566.906c6.959 0 12.614-5.654 12.614-12.612s-5.655-12.612-12.614-12.612h-566.906c-6.958 0-12.612 5.654-12.612 12.612zM188.086 750.032c0 6.958 5.654 12.612 12.612 12.612h566.906c6.959 0 12.614-5.654 12.614-12.612s-5.655-12.612-12.614-12.612h-566.906c-6.958 0-12.612 5.654-12.612 12.612zM503.659 130.595c16.458 15.241 26.778 37.018 26.778 61.17 0 46.013-37.416 83.428-83.428 83.428s-83.428-37.437-83.428-83.428c0-24.152 10.321-45.929 26.78-61.17-46.601-4.517-83.153-43.888-83.153-91.667v-79.476c0-6.959 5.653-12.611 12.611-12.611h254.362c6.959 0 12.611 5.653 12.611 12.611v79.497c0.021 47.758-36.531 87.128-83.133 91.646zM447.009 249.989c32.098 0 58.205-26.105 58.205-58.203s-26.107-58.205-58.205-58.205c-32.095 0-58.203 26.107-58.203 58.205s26.107 58.203 58.203 58.203zM561.59-27.937h-229.139v66.886c0 36.869 29.996 66.886 66.886 66.886h95.388c36.869 0 66.886-29.996 66.886-66.886v-66.886h-0.021zM847.774 130.595c16.461 15.241 26.78 37.018 26.78 61.17 0 46.013-37.437 83.428-83.428 83.428s-83.428-37.437-83.428-83.428c0-24.152 10.321-45.929 26.78-61.17-46.601-4.517-83.156-43.888-83.156-91.667v-79.476c0-6.959 5.655-12.611 12.614-12.611h254.362c6.956 0 12.611 5.653 12.611 12.611v79.497c0.021 47.758-36.534 87.128-83.135 91.646zM791.126 249.989c32.098 0 58.205-26.105 58.205-58.203s-26.107-58.205-58.205-58.205c-32.098 0-58.203 26.107-58.203 58.205s26.105 58.203 58.203 58.203zM905.707-27.937h-229.16v66.886c0 36.869 29.994 66.886 66.886 66.886h95.388c36.869 0 66.886-29.996 66.886-66.886v-66.886zM780.218 671.565c0-6.959-5.655-12.611-12.614-12.611h-316.812c-6.956 0-12.611 5.653-12.611 12.611s5.655 12.611 12.611 12.611h316.812c6.979 0 12.614-5.632 12.614-12.611z" />
<glyph unicode="&#xe917;" glyph-name="courses-completed" d="M911.999 407.52v313.76c54.192 7.807 96.001 54.415 96.001 110.719 0 61.744-50.24 112-112.001 112s-112.001-50.256-112.001-112h-767.999v-640h480.815c8.322-133.696 119.442-240.001 255.185-240.001 141.15 0 256 114.85 256 256 0 80.625-37.553 152.56-96.001 199.521zM896 912c44.112 0 79.999-35.888 79.999-80s-35.888-80-79.999-80c-44.112 0-79.999 35.888-79.999 80s35.888 80 79.999 80zM48 800h740.719c3.825-12.768 9.905-24.528 17.713-34.96l-97.856-97.856c-6.271 3.008-13.185 4.817-20.576 4.817-7.393 0-14.304-1.809-20.56-4.817l-32.24 32.24c2.99 6.271 4.799 13.185 4.799 20.576 0 26.464-21.536 48.001-48.001 48.001-26.462 0-48.001-21.536-48.001-48.001 0-7.391 1.809-14.304 4.817-20.56l-80.241-80.241c-6.271 2.992-13.185 4.801-20.576 4.801-26.465 0-48.001-21.536-48.001-48.001s21.536-48.001 48.001-48.001c26.465 0 48.001 21.536 48.001 48.001 0 7.391-1.809 14.304-4.817 20.56l80.241 80.241c6.271-2.992 13.185-4.799 20.576-4.799 7.393 0 14.304 1.807 20.56 4.815l32.24-32.24c-2.99-6.271-4.799-13.185-4.799-20.576 0-26.465 21.536-48.001 48.001-48.001 26.462 0 48.001 21.536 48.001 48.001 0 7.391-1.809 14.304-4.817 20.56l97.872 97.856c14.641-10.975 32.017-18.416 50.945-21.151v-291.92c-37.713 21.902-81.344 34.654-128 34.654-76.481 0-145.058-33.888-192-87.247v71.248h-96.001v-192h36.673c-1.984-10.447-3.184-21.151-3.857-32.001h-448.815v576.001zM688.001 640c8.816 0 15.999-7.168 15.999-15.999 0-8.834-7.184-16.002-15.999-16.002s-16.002 7.168-16.002 16.002c0 8.831 7.186 15.999 16.002 15.999zM576 719.999c0 8.834 7.184 16.001 15.999 16.001s16.002-7.167 16.002-16.001c0-8.831-7.186-15.999-16.002-15.999s-15.999 7.168-15.999 15.999zM463.999 576c0-8.831-7.184-15.999-15.999-15.999s-15.999 7.168-15.999 15.999c0 8.831 7.184 15.999 15.999 15.999s15.999-7.168 15.999-15.999zM752.001 79.999c-70.576 0-128 57.424-128 128s57.424 128 128 128c70.576 0 128-57.424 128-128s-57.424-128-128-128zM527.999 331.664c-7.664-13.824-13.999-28.433-19.024-43.663h-12.975v128h31.999v-84.337zM736.001 431.184v-64c-80.737-8.065-144.002-76.368-144.002-159.184 0-23.406 5.184-45.6 14.256-65.663l-55.503-32.049c-14.432 29.569-22.753 62.657-22.753 97.712 0 118.113 91.953 214.928 208.002 223.184zM752.001-15.999c-77.025 0-145.089 39.087-185.408 98.479l55.726 32.176c29.088-40.289 76.306-66.656 129.682-66.656s100.591 26.367 129.679 66.656l55.728-32.176c-40.321-59.392-108.385-98.479-185.408-98.479zM953.248 110.287l-55.505 32.049c9.073 20.064 14.256 42.257 14.256 65.663 0 82.817-63.263 151.136-143.999 159.184v64c116.049-8.256 207.999-105.072 207.999-223.184 0-35.055-8.319-68.144-22.751-97.712zM752.001 304.001c-52.945 0-96.001-43.056-96.001-96.001 0-52.943 43.056-95.999 96.001-95.999 52.943 0 95.999 43.056 95.999 95.999 0 52.945-43.056 96.001-95.999 96.001zM752.001 143.999c-35.296 0-64 28.704-64 64s28.704 64 64 64c35.296 0 64-28.704 64-64s-28.704-64-64-64zM80 768h32v-32h-32v32zM144 768h224.001v-32h-224.001v32zM80 704h32v-31.999h-32v31.999zM144 704h224.001v-31.999h-224.001v31.999zM80 640h32v-32.001h-32v32.001zM144 640h224.001v-32.001h-224.001v32.001zM80 576h32v-31.999h-32v31.999zM144 576h224.001v-31.999h-224.001v31.999zM80 256h96v160.001h-96v-160.001zM112 384h32v-95.999h-32v95.999zM208 256h96.001v128h-96.001v-128zM240.001 351.999h31.999v-63.998h-31.999v63.998zM335.999 256h96.001v256h-96.001v-256zM368.001 479.999h31.999v-191.998h-31.999v191.998z" />
<glyph unicode="&#xe918;" glyph-name="design" d="M183.040 956.195c6.518-3.134 12.019-8.046 15.869-14.169s5.892-13.209 5.891-20.442c0-42.496 15.974-66.97 35.994-96.768l1.485-2.15c16.998-25.293 39.322-58.419 39.322-105.882 0-48.435-24.422-91.136-61.645-116.48 9.779-8.192 18.432-18.278 25.907-30.362 24.371-39.424 35.738-99.688 35.738-186.216 0-87.654-11.776-192.922-30.976-276.992-9.523-41.779-21.35-80.331-35.43-109.261-6.647-14.393-15.453-27.685-26.112-39.424-10.547-10.801-26.778-22.319-48.282-22.319s-37.734 11.518-48.23 22.319c-10.69 11.715-19.499 25.014-26.112 39.424-14.131 28.979-25.958 67.482-35.482 109.314-19.971 90.997-30.353 183.833-30.976 276.992 0 86.528 11.366 146.739 35.738 186.163 6.953 11.443 15.7 21.695 25.907 30.362-19.007 12.904-34.563 30.268-45.309 50.573s-16.355 42.933-16.335 65.907c0 18.842 0 51.251 19.61 93.082 19.2 40.96 55.706 88.013 122.778 141.722 5.653 4.522 12.469 7.354 19.662 8.169s14.47-0.419 20.991-3.561zM76.8 716.835c0-16.974 6.743-33.304 18.745-45.306s28.281-18.745 45.255-18.745c16.974 0 33.253 6.743 45.255 18.745s18.745 28.281 18.745 45.255c0 22.477-9.472 38.042-27.75 65.229l-0.614 0.922c-11.725 17.408-25.6 38.042-35.43 64.512-27.802-28.262-43.162-51.712-51.814-70.144-12.39-26.419-12.39-45.261-12.39-60.467zM101.069 529.596c-12.698-20.582-24.269-62.771-24.269-145.871 0-81.969 11.162-181.502 29.030-259.891 9.011-39.42 19.251-71.422 29.645-92.721 1.894-3.944 3.686-7.221 5.325-9.982 1.638 2.761 3.43 6.038 5.325 9.982 10.394 21.299 20.634 53.35 29.645 92.721 17.92 78.34 29.030 177.873 29.030 259.891 0 83.1-11.571 125.288-24.269 145.871-3.829 6.93-9.617 12.575-16.64 16.228-7.271 3.17-15.167 4.64-23.091 4.301-10.24 0-17.562-1.585-23.091-4.301-7.022-3.654-12.811-9.298-16.64-16.228zM409.6 298.582c-27.125 4.551-53.511 12.747-78.438 24.371 1.498 29.041 1.926 58.122 1.28 87.192 23.091-15.512 49.152-26.931 77.158-33.28v147.919c0 20.369 8.090 39.903 22.495 54.306 14.402 14.403 33.935 22.494 54.305 22.494h204.8c-0.004 42.972-12.022 85.088-34.701 121.588s-55.116 65.93-93.643 84.965c-38.527 19.034-81.609 26.915-124.379 22.751-42.772-4.164-83.526-20.206-117.658-46.314-10.24 28.314-24.832 49.971-34.97 65.024l-2.048 3.072c46.001 32.428 100.026 51.595 156.178 55.409s112.275-7.871 162.238-33.78c49.963-25.909 91.849-65.046 121.086-113.139 29.233-48.093 44.696-103.293 44.696-159.575h179.2c20.369 0 39.903-8.092 54.305-22.494 14.406-14.403 22.495-33.936 22.495-54.306v-460.8c0-20.369-8.090-39.903-22.495-54.305-14.402-14.406-33.935-22.495-54.305-22.495h-460.8c-20.369 0-39.903 8.090-54.305 22.495-14.406 14.402-22.495 33.935-22.495 54.305v234.598zM486.4 295.354v-231.42h460.8v460.796h-188.928c-15.95-61.694-50.684-116.908-99.389-158.003-48.706-41.091-108.982-66.032-172.483-71.373zM678.093 524.73h-191.693v-152.216c43.016 4.825 83.808 21.656 117.711 48.574 33.898 26.919 59.535 62.837 73.982 103.641z" />
<glyph unicode="&#xe919;" glyph-name="development" d="M110.861 893.63h263.293v-161.915h-307.783v117.424c0 11.8 4.687 23.116 13.031 31.459s19.66 13.031 31.459 13.031zM431.043 731.715h271.314v190.359c0 15.709 12.736 28.444 28.444 28.444s28.444-12.735 28.444-28.444v-190.359h226.827c15.709 0 28.444-12.735 28.444-28.444s-12.736-28.444-28.444-28.444h-226.827v-234.848h226.827c15.709 0 28.444-12.736 28.444-28.444v-364.673c0-26.889-10.68-52.675-29.692-71.688s-44.798-29.692-71.688-29.692h-802.278c-26.888 0-52.674 10.68-71.686 29.692s-29.693 44.798-29.693 71.688v802.278c0 26.888 10.681 52.673 29.693 71.686s44.798 29.693 71.686 29.693h291.738c15.709 0 28.444-12.735 28.444-28.444v-190.359zM374.154 674.826h-307.783v-627.965c0-11.799 4.687-23.116 13.031-31.46s19.66-13.031 31.459-13.031h802.278c11.799 0 23.116 4.688 31.46 13.031s13.031 19.661 13.031 31.46v336.229h-555.031c-15.709 0-28.445 12.732-28.445 28.444v263.292zM702.358 439.979v234.848h-271.314v-234.848h271.314z" />
<glyph unicode="&#xe91a;" glyph-name="discord" horiz-adv-x="1396" d="M1143.268 853.819c144.002-213.819 216.008-453.818 189.822-730.91 0 0 0-2.181-2.178-2.181-96.005-72-205.089-126.546-320.726-161.455-2.188-2.178-2.188 0-4.366 0-23.999 34.909-45.819 69.818-65.452 106.909 0 2.182 0 4.363 2.178 6.545 34.909 13.091 67.64 28.364 100.361 48 2.188 0 2.188 4.363 0 6.545-6.544 4.363-13.089 8.727-19.633 15.272-2.178 0-2.178 0-4.366 0-207.272-96-434.181-96-643.635 0-2.182 0-4.363 0-4.363 0-6.546-6.545-13.091-10.909-19.637-15.272-4.364-2.182-2.182-6.545 0-6.545 30.545-19.637 65.454-34.909 100.363-48 2.182-2.182 2.182-4.363 2.182-6.545-19.637-37.091-41.454-72-65.454-106.909-2.182 0-4.364-2.178-4.364 0-115.637 34.909-224.727 89.455-320.727 161.455-2.182 0-2.182 2.181-2.182 2.181-21.818 240 24 482.182 189.818 730.91 0 0 0 0 2.182 0 82.91 39.272 170.182 65.454 259.636 80.727 2.182 2.182 4.364 0 4.364 0 13.090-21.818 24-45.818 32.727-67.636 98.182 15.273 196.363 15.273 294.545 0 8.727 21.818 19.637 45.818 32.728 67.636 0 0 2.181 2.182 4.363 0 89.456-15.273 176.728-41.454 259.635-80.727 2.178 0 2.178 0 2.178 0zM484.363 269.090c63.273 0 115.637 58.91 115.637 128.728 0 72-50.182 128.727-115.637 128.727-63.272 0-115.636-56.727-115.636-128.727 0-69.818 52.364-128.728 115.636-128.728zM909.818 269.090c65.458 0 115.634 58.91 115.634 128.728 2.188 72-50.176 128.727-115.634 128.727-63.273 0-113.455-56.727-113.455-128.727 0-69.818 50.182-128.728 113.455-128.728z" />
<glyph unicode="&#xe91b;" glyph-name="educational-leadership" horiz-adv-x="1008" d="M936.725 606.113c22.662 21.436 36.914 51.703 36.914 85.294 0 64.797-52.711 117.507-117.508 117.507-64.799 0-117.51-52.71-117.51-117.507 0-41.229 21.387-77.506 53.601-98.473-22.192-15.125-36.814-40.574-36.814-69.397v-117.508h-67.148v83.935c0 60.063-45.324 109.685-103.575 116.601 22.394 21.403 36.428 51.487 36.428 84.842 0 64.797-52.711 117.507-117.508 117.507s-117.508-52.71-117.508-117.507c0-33.356 14.034-63.439 36.428-84.842-58.25-6.916-103.575-56.537-103.575-116.601v-83.935h-67.148v117.508c0 28.823-14.621 54.272-36.814 69.397 32.213 20.967 53.601 57.243 53.601 98.473 0 64.797-52.711 117.507-117.509 117.507s-117.508-52.71-117.508-117.507c0-33.592 14.252-63.858 36.914-85.294-39.869-6.48-70.488-40.894-70.488-82.575v-251.803c0-40.524 28.89-74.432 67.148-82.238v-253.5h33.574v251.803h151.082v-235.016c0-9.266 7.521-16.787 16.787-16.787h100.721c9.266 0 16.787 7.521 16.787 16.787v268.59h100.721v-251.803h-67.148v-33.575h167.87v33.575h-67.148v251.803h100.721v-268.59c0-9.266 7.521-16.787 16.787-16.787h100.721c9.266 0 16.787 7.521 16.787 16.787v235.016h151.083v-251.803h33.573v253.5c38.258 7.806 67.148 41.697 67.148 82.238v251.803c0 41.682-30.619 76.096-70.487 82.575zM772.197 691.408c0 46.28 37.653 83.933 83.935 83.933s83.933-37.653 83.933-83.933c0-46.282-37.652-83.935-83.933-83.935s-83.935 37.653-83.935 83.935zM419.671 691.408c0 46.28 37.653 83.933 83.935 83.933s83.935-37.653 83.935-83.933c0-46.282-37.653-83.935-83.935-83.935s-83.935 37.653-83.935 83.935zM529.744 573.898l-26.137-69.698-26.137 69.698h52.274zM352.525 489.965c0 46.282 37.652 83.933 83.933 83.933h5.153l46.282-123.4c2.451-6.547 8.713-10.895 15.713-10.895s13.262 4.348 15.73 10.895l46.264 123.4h5.153c46.282 0 83.935-37.652 83.935-83.933v-83.935h-67.148c-9.266 0-16.787-7.521-16.787-16.787v-67.148h-134.295v67.148c0 9.266-7.521 16.787-16.787 16.787h-67.146v83.935zM67.148 691.408c0 46.28 37.653 83.933 83.934 83.933s83.934-37.653 83.934-83.933c0-46.282-37.652-83.935-83.934-83.935s-83.934 37.653-83.934 83.935zM352.525-30.429h-67.148v235.016c0 9.266-7.521 16.787-16.787 16.787h-184.656c-27.766 0-50.361 22.594-50.361 50.36v251.803c0 27.766 22.595 50.36 50.361 50.36h83.934c27.766 0 50.362-22.594 50.362-50.36v-134.295c0-9.266 7.519-16.787 16.786-16.787h167.87v-50.36h-235.017v151.083h-33.573v-167.868c0-9.266 7.521-16.787 16.787-16.787h151.082c27.766 0 50.362-22.596 50.362-50.36v-268.59zM622.995 254.948h-238.776c-2.535 12.373-7.622 23.821-14.941 33.575h268.657c-7.319-9.753-12.405-21.202-14.939-33.575zM973.64 271.735c0-27.766-22.596-50.36-50.36-50.36h-184.657c-9.265 0-16.786-7.521-16.786-16.787v-235.016h-67.148v268.59c0 27.765 22.594 50.36 50.36 50.36h151.083c9.266 0 16.786 7.521 16.786 16.787v167.868h-33.573v-151.083h-235.016v50.36h167.868c9.266 0 16.787 7.521 16.787 16.787v134.295c0 27.766 22.594 50.36 50.36 50.36h83.935c27.765 0 50.36-22.594 50.36-50.36v-251.803zM520.394 406.030h-33.575v-33.573h33.575v33.573zM419.673 960h-235.017c-9.266 0-16.786-7.521-16.786-16.787v-83.934c0-9.266 7.519-16.787 16.786-16.787h67.148v-33.574c0-6.362 3.593-12.17 9.284-15.025 2.366-1.174 4.951-1.761 7.504-1.761 3.559 0 7.1 1.141 10.071 3.357l62.666 47.003h78.345c9.266 0 16.786 7.521 16.786 16.787v83.934c0 9.266-7.519 16.787-16.786 16.787zM402.886 876.066h-67.148c-3.627 0-7.168-1.175-10.071-3.357l-40.289-30.217v16.787c0 9.266-7.521 16.787-16.787 16.787h-67.148v50.361h201.443v-50.361zM621.116 909.638h-33.573v-33.574h33.573v33.574zM688.262 909.638h-33.573v-33.574h33.573v33.574zM755.413 909.638h-33.575v-33.574h33.575v33.574z" />
<glyph unicode="&#xe91c;" glyph-name="education-empowering-learne" horiz-adv-x="940" d="M485.67 959.828c-20.253 0-37.504-14.288-44.032-33.961h-394.635c-25.767 0-47-23.057-47-51.039v-170.136c-0.301-23.010 31.635-23.010 31.333 0v170.136c0 9.719 6.716 17.012 15.667 17.012h391.728v-34.026h-360.395c-8.652-0.001-15.666-7.618-15.667-17.014v-476.379c0.001-9.396 7.015-17.012 15.667-17.014h720.668c8.652 0.002 15.666 7.618 15.667 17.014v221.142h31.333v-255.169c0-9.72-6.716-17.014-15.666-17.014h-783.336c-8.951 0-15.667 7.294-15.667 17.014v221.176c0.301 23.010-31.635 23.010-31.333 0v-221.176c0-27.982 21.233-51.041 47-51.041h783.336c25.766 0 47 23.058 47 51.041v255.169h15.635c25.768 0 47.092 23.159 47.092 51.141v272.15c0 27.982-21.324 50.973-47.092 50.973h-407.304zM485.67 925.934h407.304c8.951 0 15.76-7.359 15.76-17.078v-272.15c0-9.72-6.809-17.113-15.76-17.113h-266.334c-3.713 0.017-7.314-1.397-10.158-3.989l-83.872-78.121v65.162c-0.032 9.344-7.002 16.909-15.607 16.948h-31.333c-8.949 0-15.605 7.395-15.605 17.113v272.15c0 9.719 6.656 17.078 15.605 17.078zM611.034 857.847v-170.169c0.002-13.337 13.492-21.487 23.928-14.455l125.364 85.036c9.837 6.661 9.837 22.214 0 28.877l-125.364 85.167c-9.396 6.385-23.928 0.675-23.928-14.455zM642.367 827.077l80.048-54.365-80.048-54.264v108.629zM94.002 823.784h344.728v-187.083c0-27.982 21.173-51.14 46.939-51.14h15.605v-85.002c-0.077-14.615 15.739-22.52 25.917-12.959l105.23 97.962h150.914v-204.13h-313.334c0 56.26-42.226 101.984-94.030 101.984h-15.605v43.33c19.184 18.714 31.363 45.753 31.363 75.863v16.945c8.652 0.035 15.639 7.685 15.607 17.081v51.009c0 56.258-42.227 102.115-94.032 102.115h-31.333c-51.806 0-93.908-45.857-93.909-102.115v-51.009c-0.030-9.396 6.953-17.042 15.605-17.081v-16.945c0-30.106 12.123-57.151 31.304-75.863v-43.33h-15.697c-51.806 0-93.909-45.724-93.909-101.984h-31.364v442.353zM281.973 755.695h31.333c34.989 0 62.667-30.055 62.667-68.052v-27.017l-20.257 22.001c-5.281 5.736-13.522 6.624-19.736 2.129 0 0-45.335-31.17-85.371-31.17h-31.333v34.061c0 37.997 27.708 68.049 62.697 68.049zM15.424 653.883c-8.64-0.129-15.54-7.865-15.422-17.249v-17.014c-0.301-23.010 31.635-23.010 31.333 0v17.014c0.126 9.592-7.079 17.398-15.911 17.249zM342.16 649.33l18.207-19.839v-26.883c0-37.995-27.678-68.054-62.667-68.054s-62.729 30.059-62.728 68.054v16.945h15.635c40.171 0 81.138 22.499 91.552 29.777zM266.366 506.474c9.815-3.787 20.344-5.978 31.334-5.978 10.999 0 21.511 2.184 31.333 5.978v-36.75c0 0-5.308-20.203-31.333-20.203s-31.334 19.971-31.334 19.971v36.982zM219.275 449.523h21.235c0 0 13.52-34.027 57.19-34.027s57.159 34.027 57.159 34.027h21.113c34.987 0 62.697-30.092 62.697-68.089h-281.939c0 37.997 27.556 68.089 62.545 68.089zM141.033 245.359c-43.126 0-78.425-38.2-78.425-85.034v-17.077c0-19.805 6.592-37.826 17.135-52.306-45.056-7.494-79.679-49.79-79.68-100.785v-34.059c-0.031-9.396 6.953-17.042 15.605-17.081h250.606c8.699-0.034 15.761 7.633 15.728 17.081v34.059c0 50.978-34.688 93.271-79.741 100.785 10.52 14.48 17.074 32.501 17.074 52.306v17.077c0 46.834-35.177 85.034-78.303 85.034zM470.065 245.359c-43.126 0-78.425-38.2-78.425-85.034v-17.077c0-19.802 6.564-37.828 17.104-52.306-45.066-7.5-79.771-49.795-79.771-100.785v-34.059c-0.032-9.448 7.027-17.116 15.728-17.081h250.606c8.699-0.034 15.761 7.633 15.728 17.081v34.059c0 50.973-34.697 93.263-79.741 100.785 10.52 14.48 17.074 32.501 17.074 52.306v17.077c0 46.834-35.177 85.034-78.302 85.034zM798.973 245.359c-43.126 0-78.302-38.2-78.302-85.034v-17.077c0-19.805 6.554-37.826 17.074-52.306-45.053-7.514-79.771-49.807-79.771-100.785v-34.059c-0.032-9.461 7.045-17.134 15.758-17.081h250.606c8.699-0.034 15.761 7.633 15.728 17.081v34.059c0 50.997-34.729 93.291-79.801 100.785 10.542 14.48 17.104 32.501 17.104 52.306v17.077c0 46.834-35.269 85.034-78.395 85.034zM141.033 211.3c26.309 0 46.94-22.404 46.94-50.975v-17.077c0-28.571-20.631-51.009-46.94-51.009s-47.061 22.437-47.061 51.009v17.077c0 28.571 20.752 50.975 47.061 50.975zM470.065 211.3c26.308 0 46.938-22.404 46.938-50.975v-17.077c0-28.571-20.629-51.009-46.938-51.009-26.31 0-47.092 22.437-47.092 51.009v17.077c0 28.571 20.782 50.975 47.092 50.975zM798.973 211.3c26.308 0 47.060-22.404 47.060-50.975v-17.077c0-28.571-20.752-51.009-47.060-51.009s-46.97 22.437-46.97 51.009v17.077c0 28.571 20.661 50.975 46.97 50.975zM93.972 58.212h94.001c34.987 0 62.697-30.059 62.697-68.056v-17.111h-219.396v17.111c0.001 37.997 27.709 68.056 62.698 68.056zM422.972 58.212h94.030c34.989 0 62.699-30.059 62.699-68.056v-17.111h-219.396v17.111c0.002 37.997 27.68 68.056 62.667 68.056zM752.004 58.212h94.030c34.989 0 62.699-30.059 62.699-68.056v-17.111h-219.396v17.111c0.002 37.997 27.68 68.056 62.667 68.056z" />
<glyph unicode="&#xe91d;" glyph-name="education-resources" d="M957.937 728.774c-12.918 0-24.891-3.865-35.098-10.306-6.459 24.84-28.902 43.338-55.741 43.338-31.877 0-57.807-25.93-57.807-57.806v-47.089c-5.135 2.463-10.67 4.114-16.517 4.972v248.569c0 9.117-7.398 16.516-16.515 16.516h-49.549v16.516c0 9.117-7.398 16.516-16.517 16.516h-165.161c-4.375 0-8.589-1.734-11.676-4.839l-21.356-21.355-21.356 21.355c-3.087 3.105-7.301 4.839-11.676 4.839h-165.161c-9.119 0-16.517-7.399-16.517-16.516v-16.516h-49.548c-9.117 0-16.516-7.399-16.516-16.516v-248.584c-5.847-0.842-11.38-2.493-16.516-4.972v47.104c0 31.876-25.93 57.806-57.807 57.806-26.839 0-49.284-18.498-55.742-43.338-10.207 6.441-22.181 10.306-35.097 10.306-36.435 0-66.065-29.63-66.065-66.064v-280.773c0-2.76 0.694-5.484 2.015-7.913l99.097-181.678c0.76-1.385 1.718-2.657 2.824-3.781l129.305-129.288c9.348-9.349 14.501-21.786 14.501-35.031v-71.729c0-9.134 7.399-16.517 16.517-16.517h198.193c9.116 0 16.517 7.383 16.517 16.517v205.194c0 20.992-7.895 40.993-22.216 56.338l-76.882 82.383v159.826c0 31.875-25.93 57.805-57.807 57.805-8.901 0-17.242-2.196-24.773-5.796v55.345h429.42v-55.345c-7.532 3.599-15.872 5.796-24.773 5.796-31.877 0-57.807-25.93-57.807-57.805v-159.844l-76.882-82.365c-14.321-15.345-22.216-35.346-22.216-56.338v-205.194c0-9.134 7.401-16.517 16.517-16.517h198.193c9.116 0 16.517 7.383 16.517 16.517v71.729c0 13.245 5.153 25.7 14.5 35.046l129.306 129.29c1.106 1.106 2.063 2.394 2.824 3.781l99.098 181.678c1.321 2.412 2.015 5.135 2.015 7.895v280.773c0 36.434-29.629 66.064-66.063 66.064zM842.322 704c0 13.659 11.116 24.774 24.776 24.774 13.658 0 24.773-11.115 24.773-24.774v-250.286l-34.386-43.75c-2.363 9.925-7.828 18.58-15.163 25.203v268.833zM551.869 926.968h141.809v-264.258h-165.161v240.904l23.352 23.354zM472.131 926.968l23.352-23.354v-240.904h-165.161v264.258h141.809zM264.259 893.935h33.032v-247.743c0-9.116 7.398-16.515 16.517-16.515h396.385c9.119 0 16.517 7.398 16.517 16.515v247.743h33.032v-297.289h-495.483v297.289zM132.129 704c0 13.659 11.115 24.774 24.774 24.774s24.774-11.115 24.774-24.774v-268.849c-7.333-6.607-12.8-15.278-15.162-25.206l-34.387 43.768v250.286zM445.937 157.711v-188.68h-165.164v55.214c0 22.065-8.586 42.811-24.179 58.401l-127.62 127.619-95.942 175.882v276.562c0 18.217 14.815 33.032 33.032 33.032s33.032-14.815 33.032-33.032v-214.71c0-3.699 1.239-7.283 3.534-10.207l181.677-231.227 25.964 20.416-112.078 142.648v28.82c0 9.116 7.416 16.517 16.516 16.517h2.163c4.559 0 8.952-1.917 12.073-5.253l203.66-218.212c8.589-9.198 13.33-21.189 13.33-33.792zM322.063 481.032c13.66 0 24.776-11.116 24.776-24.773v-124.449l-49.549 53.082v71.368c0 13.658 11.116 24.773 24.773 24.773zM264.259 456.259v-35.973l-11.165 11.958c-9.332 10.010-22.544 15.757-36.22 15.757h-2.163v156.902c0 10.752 6.92 19.837 16.516 23.255v-48.028c0-9.116 7.399-16.517 16.516-16.517h16.517v-107.354zM776.259 563.612c9.116 0 16.515 7.401 16.515 16.517v48.028c9.597-3.418 16.517-12.503 16.517-23.255v-156.902h-2.163c-13.693 0-26.888-5.747-36.221-15.757l-11.164-11.958v143.327h16.517zM677.161 456.259c0 13.658 11.116 24.773 24.776 24.773 13.658 0 24.773-11.116 24.773-24.773v-71.368l-49.549-53.082v124.449zM990.968 386.148l-95.944-175.882-127.619-127.619c-15.593-15.59-24.179-36.337-24.179-58.401v-55.214h-165.164v188.68c0 12.603 4.741 24.594 13.33 33.792l203.676 218.23c3.105 3.318 7.498 5.235 12.058 5.235h2.163c9.101 0 16.517-7.401 16.517-16.517v-28.82l-112.079-142.648 25.964-20.416 181.678 231.227c2.294 2.924 3.533 6.508 3.533 10.207v214.71c0 18.217 14.815 33.032 33.034 33.032 18.217 0 33.032-14.815 33.032-33.032v-276.562zM363.354 877.419h99.098v-33.032h-99.098v33.032zM363.354 811.355h99.098v-33.032h-99.098v33.032zM363.354 745.291h99.098v-33.032h-99.098v33.032zM561.549 877.419h99.098v-33.032h-99.098v33.032zM561.549 811.355h99.098v-33.032h-99.098v33.032zM561.549 745.291h99.098v-33.032h-99.098v33.032z" />
<glyph unicode="&#xe91e;" glyph-name="embark-empowerment" d="M972.807 413.864v68.268c0 2.512-0.556 4.994-1.626 7.269-1.072 2.273-2.631 4.283-4.568 5.883-1.936 1.602-4.204 2.756-6.638 3.379s-4.976 0.702-7.444 0.229l-30.925-5.939-17.75 62.124c-0.656 2.309-1.794 4.456-3.335 6.298-1.543 1.84-3.458 3.335-5.619 4.385-2.16 1.050-4.517 1.633-6.917 1.71s-4.791-0.355-7.014-1.265l-130.032-53.213v37.409c-0.827 63.113-26.264 123.407-70.896 168.038s-104.925 70.070-168.038 70.896c-31.572 0.716-62.963-4.975-92.275-16.729-29.314-11.754-55.94-29.328-78.27-51.659-22.332-22.332-39.905-48.958-51.659-78.27s-17.445-60.703-16.73-92.277v-37.409l-130.065 53.213c-2.223 0.911-4.613 1.342-7.014 1.265s-4.758-0.66-6.919-1.71c-2.16-1.050-4.074-2.545-5.618-4.385s-2.68-3.988-3.337-6.298l-17.715-62.124-30.891 5.939c-2.471 0.479-5.016 0.404-7.455-0.216-2.439-0.622-4.71-1.774-6.651-3.376s-3.504-3.613-4.576-5.89c-1.072-2.277-1.629-4.762-1.628-7.278v-68.268c-13.579 0-26.602-5.394-36.204-14.996s-14.996-22.625-14.996-36.204v-68.266c0-13.579 5.394-26.602 14.996-36.204s22.625-14.996 36.204-14.996v-204.802c0.001-3.968 1.385-7.813 3.914-10.873 2.529-3.057 6.046-5.14 9.944-5.886l443.735-85.334c2.119-0.41 4.297-0.41 6.416 0l443.734 85.334c3.899 0.746 7.415 2.829 9.946 5.886 2.529 3.059 3.913 6.905 3.913 10.873v204.802c13.579 0 26.602 5.394 36.204 14.996s14.996 22.625 14.996 36.204v68.266c0 13.579-5.394 26.602-14.996 36.204s-22.625 14.996-36.204 14.996zM876.312 527.376l11.674-40.96-210.688-40.45 199.014 81.41zM307.205 550.398c-0.614 27.063 4.264 53.97 14.34 79.095s25.137 47.947 44.279 67.088c19.141 19.14 41.964 34.203 67.088 44.279 25.125 10.074 52.030 14.952 79.093 14.34 53.89-1.353 105.2-23.365 143.318-61.484s60.131-89.428 61.484-143.318v-51.37l-34.134-13.961v82.399c0 2.593-0.592 5.153-1.73 7.484s-2.792 4.374-4.837 5.968c-2.046 1.596-4.429 2.706-6.967 3.242-2.538 0.538-5.164 0.49-7.68-0.141-127.183-31.83-172.528 13.517-205.654 46.643-1.787 1.785-3.944 3.152-6.321 4.003s-4.913 1.163-7.426 0.914c-2.512-0.247-4.939-1.050-7.104-2.35-2.165-1.298-4.014-3.061-5.416-5.162-7.632-12.306-18.044-22.654-30.396-30.215-12.352-7.559-26.304-12.122-40.737-13.321-4.526 0-8.867-1.797-12.069-4.999-3.2-3.2-4.997-7.541-4.997-12.067v-82.467l-34.134 13.961v51.438zM648.539 546.2v-75.092l-136.534-55.861-136.534 55.861v81.408c27.088 5.616 51.633 19.84 69.974 40.55 34.134-31.744 89.532-69.616 203.094-46.866zM147.7 527.428l199.015-81.41-210.689 40.466 11.674 40.944zM51.205 277.332c-4.526 0-8.867 1.797-12.068 4.997-3.201 3.202-4.999 7.543-4.999 12.069v68.266c0 4.528 1.798 8.869 4.999 12.069s7.542 4.999 12.068 4.999h34.133c4.526 0 8.867-1.799 12.068-4.999s4.999-7.541 4.999-12.069v-68.266c0-4.526-1.798-8.867-4.999-12.069-3.201-3.2-7.542-4.997-12.068-4.997h-34.133zM460.805-19.716l-375.468 72.21v190.704c13.579 0 26.602 5.394 36.204 14.996s14.996 22.625 14.996 36.204v68.266c0 13.579-5.394 26.602-14.996 36.204s-22.625 14.996-36.204 14.996v47.6l375.468-72.208v-408.971zM529.073-26.269l-17.068-3.277-17.066 3.277v408.901l14.029-2.611c2.077-0.196 4.169-0.196 6.246 0l13.859 2.681v-408.971zM938.673 52.495l-375.468-72.21v408.971l375.468 72.208v-47.6c-13.579 0-26.602-5.394-36.204-14.996s-14.996-22.625-14.996-36.204v-68.266c0-13.579 5.394-26.602 14.996-36.204s22.625-14.996 36.204-14.996v-190.704zM989.873 294.398c0-4.526-1.797-8.867-4.997-12.069-3.202-3.2-7.543-4.997-12.069-4.997h-34.134c-4.526 0-8.867 1.797-12.067 4.997-3.202 3.202-4.999 7.543-4.999 12.069v68.266c0 4.528 1.797 8.869 4.999 12.069 3.2 3.2 7.541 4.999 12.067 4.999h34.134c4.526 0 8.867-1.799 12.069-4.999 3.2-3.2 4.997-7.541 4.997-12.069v-68.266zM426.642 499.196h34.134v-34.134h-34.134v34.134zM563.143 499.196h34.132v-34.134h-34.132v34.134zM238.905 723.233c12.363 3.191 23.583 9.787 32.386 19.035 8.801 9.249 14.833 20.782 17.41 33.287s1.595 25.483-2.834 37.458c-4.431 11.975-12.129 22.468-22.223 30.287s-22.179 12.65-34.882 13.945c-12.701 1.295-25.512-0.998-36.977-6.619-11.464-5.621-21.122-14.345-27.877-25.18s-10.336-23.347-10.336-36.116h34.133c0 6.751 2.002 13.35 5.753 18.964s9.081 9.988 15.318 12.572c6.237 2.584 13.102 3.259 19.723 1.942s12.703-4.568 17.476-9.342c4.774-4.774 8.026-10.856 9.342-17.477s0.64-13.484-1.942-19.722c-2.584-6.237-6.96-11.568-12.571-15.318-5.614-3.75-12.213-5.753-18.964-5.753h-17.068v-68.266h34.134v36.301zM204.857 652.795h34.134v-34.134h-34.134v34.134zM767.982 825.634c12.361 3.192 23.581 9.787 32.384 19.036s14.835 20.781 17.412 33.287c2.576 12.506 1.595 25.483-2.836 37.458-4.429 11.975-12.129 22.468-22.223 30.287s-22.179 12.65-34.88 13.945c-12.703 1.295-25.514-0.998-36.977-6.619-11.465-5.621-21.124-14.345-27.878-25.18s-10.335-23.347-10.335-36.116h34.132c0 6.751 2.002 13.35 5.753 18.964s9.083 9.988 15.32 12.572c6.237 2.583 13.1 3.259 19.721 1.942s12.703-4.568 17.477-9.341c4.773-4.774 8.024-10.856 9.34-17.477 1.318-6.621 0.642-13.484-1.942-19.722s-6.958-11.568-12.571-15.318c-5.614-3.751-12.213-5.753-18.964-5.753h-17.066v-68.267h34.134v36.301zM733.857 755.196h34.134v-34.134h-34.134v34.134zM119.5 192v-102.4c0.003-4.010 1.417-7.89 3.995-10.96s6.154-5.136 10.102-5.833l290.134-51.2 5.939 33.587-276.037 48.726v88.080h-34.133zM870.466 103.92l-276.037-48.726 5.939-33.587 290.134 51.2c3.948 0.697 7.525 2.763 10.103 5.833s3.992 6.95 3.995 10.96v102.4h-34.134v-88.080zM631.486 331.783l225.452 48.316-7.168 33.382-238.934-51.2c-3.818-0.819-7.239-2.924-9.693-5.961-2.454-3.039-3.791-6.826-3.791-10.73v-68.268h34.134v54.46zM392.523 226.123h34.134v119.468c0 3.904-1.337 7.691-3.791 10.73-2.454 3.037-5.875 5.142-9.693 5.961l-238.934 51.2-7.168-33.382 225.452-48.316v-105.66zM392.499 123.732h34.134v-34.134h-34.134v34.134zM392.499 192h34.134v-34.134h-34.134v34.134z" />
<glyph unicode="&#xe91f;" glyph-name="eye" horiz-adv-x="1390" d="M710.857 665.143c6.857 0 13.714 2.286 20.571 2.286 121.139 0 219.429-98.286 219.429-219.429s-98.289-219.429-219.429-219.429c-123.429 0-219.429 98.286-219.429 219.429 0 4.571 0 11.429 0 18.286 20.571-11.429 45.714-18.286 73.143-18.286 80 0 146.286 64 146.286 146.286 0 25.143-9.143 50.286-20.571 70.857zM1170.286 774.857c107.432-98.286 178.286-217.143 212.568-299.429 6.861-18.286 6.861-38.857 0-57.143-34.282-80-105.136-198.857-212.568-299.429s-256-182.857-438.857-182.857c-185.143 0-333.714 82.286-441.143 182.857s-178.286 219.429-212.571 299.429c-6.857 18.286-6.857 38.857 0 57.143 34.286 82.286 105.143 201.143 212.571 299.429 107.429 100.571 256 185.143 441.143 185.143 182.857 0 331.425-84.571 438.857-185.143zM731.429 777.143c-182.857 0-329.143-148.571-329.143-329.143 0-182.857 146.286-329.143 329.143-329.143 180.575 0 329.143 146.286 329.143 329.143 0 180.571-148.568 329.143-329.143 329.143z" />
<glyph unicode="&#xe920;" glyph-name="eye-cut" horiz-adv-x="1252" d="M323.556 737.778c80 60.444 179.556 108.444 302.222 108.444 142.222 0 257.775-65.778 341.333-144 83.558-76.444 138.667-168.889 165.33-232.889 5.336-14.222 5.336-30.222 0-44.444-23.108-56.886-71.111-138.67-142.222-209.781l186.67-147.553c19.553-14.222 23.114-40.886 7.111-58.67-14.222-19.553-40.886-23.108-58.67-7.111l-1052.442 824.892c-19.556 14.222-23.111 40.889-7.111 58.667 14.222 19.556 40.889 23.111 58.667 7.111l199.111-154.667zM453.333 636.444l159.997-126.222c7.111 16 12.447 32 12.447 51.556s-7.111 39.111-15.997 55.111c5.33 0 10.661 1.778 15.997 1.778 94.219 0 170.667-76.444 170.667-170.667 0-24.889-5.336-48-15.997-69.336l69.33-53.328c19.553 35.556 32 78.219 32 122.664 0 140.444-115.553 256-256 256-67.556 0-128-26.667-172.444-67.556zM625.778 49.778c-144 0-259.556 64-343.111 142.222s-138.667 170.667-165.333 232.889c-5.333 14.222-5.333 30.222 0 44.444 17.778 40.889 46.222 92.444 87.111 145.778l167.111-131.556c-1.778-12.444-1.778-24.889-1.778-35.556 0-142.222 113.778-256 256-256 32 0 64 5.336 94.219 17.778l129.781-103.111c-65.781-35.556-140.442-56.889-224-56.889z" />
<glyph unicode="&#xe921;" glyph-name="facebook" horiz-adv-x="614" d="M520.8 371.2h-140.001v-418.133h-186.666v418.133h-153.067v171.733h153.067v132.534c0 149.333 89.6 233.333 225.866 233.333 65.334 0 134.4-13.067 134.4-13.067v-147.467h-76.533c-74.667 0-97.067-44.8-97.067-93.334v-112h166.134l-26.133-171.733z" />
<glyph unicode="&#xe922;" glyph-name="fax" d="M384 832v-192h-128v256c0 34 28 64 64 64h484c18.003 0 34.003-8 45.997-20l90.003-90c12-12 20-28 20-46v-164h-128v138l-54.003 54h-393.997zM128 704c34 0 64-30 64-64v-640c0-36-30-64-64-64h-64c-36 0-64 28-64 64v640c0 34 28 64 64 64h64zM960 576c33.997 0 64-30 64-64v-512c0-36-30.003-64-64-64h-640c-36 0-64 28-64 64v576h704zM576 96v64c0 16-16 32-32 32h-64c-18 0-32-16-32-32v-64c0-17.997 14-32 32-32h64c16 0 32 14.003 32 32zM576 352v64c0 16-16 32-32 32h-64c-18 0-32-16-32-32v-64c0-18 14-32 32-32h64c16 0 32 14 32 32zM832 96v64c0 16-16 32-32 32h-64c-17.997 0-32-16-32-32v-64c0-17.997 14.003-32 32-32h64c16 0 32 14.003 32 32zM832 352v64c0 16-16 32-32 32h-64c-17.997 0-32-16-32-32v-64c0-18 14.003-32 32-32h64c16 0 32 14 32 32z" />
<glyph unicode="&#xe923;" glyph-name="growth-team-help" horiz-adv-x="1036" d="M962.955 192.086h-890.403c-40.044 0-72.551 32.507-72.551 72.551v622.811c0 40.044 32.507 72.551 72.551 72.551h890.403c40.044 0 72.551-32.507 72.551-72.551v-622.811c0-40.044-32.507-72.551-72.551-72.551zM72.316 937.387c-27.56 0-49.938-22.378-49.938-49.938v-622.811c0-27.559 22.378-49.938 49.938-49.938h890.403c27.561 0 49.938 22.378 49.938 49.938v622.811c0 27.56-22.377 49.938-49.938 49.938h-890.403zM958.008 258.042h-880.981c-6.36 0-11.307 4.947-11.307 11.307v613.153c0 6.36 5.182 11.307 11.307 11.307h880.981c6.124 0 11.307-5.182 11.307-11.307v-613.153c0-6.359-4.947-11.307-11.307-11.307zM88.569 280.655h858.367v590.54h-858.367v-590.54zM402.567-56.426h-78.675c-3.533 0-6.831 1.649-8.951 4.476s-2.827 6.596-1.885 9.894l72.787 248.276c1.649 5.889 8.009 9.422 14.134 7.773 5.89-1.885 9.423-8.009 7.773-14.134l-68.546-233.907h55.12l70.43 240.267c1.65 5.889 8.009 9.422 14.134 7.773 5.89-1.885 9.423-8.009 7.773-14.134l-73.257-248.040c-1.413-4.946-5.889-8.245-10.836-8.245zM711.618-56.426h-78.912c-4.946 0-9.422 3.298-10.835 8.245l-72.787 248.276c-1.885 5.889 1.649 12.249 7.773 14.134 5.889 1.883 12.249-1.65 14.134-7.774l70.43-240.267h55.356l-68.546 233.908c-1.885 5.889 1.649 12.249 7.773 14.134 5.889 1.883 12.249-1.65 14.134-7.774l72.787-248.276c0.942-3.533 0.235-7.067-1.885-9.893s-5.89-4.712-9.422-4.712zM192.216-56.426h-78.676c-3.533 0-6.831 1.649-8.951 4.476s-2.827 6.596-1.884 9.894l72.787 248.276c1.649 5.889 8.009 9.422 14.134 7.773 5.889-1.885 9.422-8.009 7.773-14.134l-68.547-233.907h55.12l70.432 240.267c1.649 5.889 8.009 9.422 14.134 7.773 5.889-1.885 9.422-8.009 7.773-14.134l-73.259-248.040c-1.413-4.946-5.889-8.245-10.835-8.245zM921.968-56.426h-78.911c-4.946 0-9.422 3.298-10.836 8.245l-72.787 248.276c-1.883 5.889 1.65 12.249 7.774 14.134 6.124 1.883 12.249-1.65 14.132-7.774l70.432-240.267h55.356l-68.547 233.908c-1.885 5.889 1.649 12.249 7.773 14.134 6.124 1.883 12.249-1.65 14.134-7.774l72.787-248.276c0.942-3.533 0.236-7.067-1.885-9.893-2.119-2.827-5.889-4.712-9.422-4.712zM334.961 690.525c-0.942 0-2.12 0.235-3.063 0.471l-201.871 58.889c-4.947 1.413-8.245 5.889-8.245 10.836s3.298 9.422 8.245 10.835l201.871 58.889c2.12 0.706 4.241 0.706 6.36 0l201.872-58.889c4.712-1.413 8.245-5.889 8.245-10.835s-3.298-9.423-8.245-10.836l-201.872-58.889c-1.177-0.471-2.355-0.471-3.298-0.471zM173.369 760.485l161.592-47.111 161.592 47.111-161.592 47.111-161.592-47.111zM334.96 590.177c-4.241 0-8.245 0.708-12.485 2.12l-101.76 33.213c-14.369 4.712-23.555 16.489-23.555 29.916v83.151c0 6.36 5.182 11.307 11.307 11.307s11.307-5.182 11.307-11.307v-83.151c0-3.769 3.062-6.831 7.773-8.48l101.996-33.213c3.768-1.178 7.067-1.178 10.835 0l101.76 33.213c4.947 1.649 7.774 4.71 7.774 8.48v83.151c0 6.36 4.946 11.307 11.307 11.307 6.359 0 11.307-5.182 11.307-11.307v-83.151c0-13.662-9.187-25.204-23.555-29.916l-101.76-33.213c-4.005-1.413-8.245-2.12-12.249-2.12zM334.96 590.177c-6.124 0-11.307 4.946-11.307 11.307v100.112c0 6.124 4.946 11.307 11.307 11.307 6.124 0 11.307-4.947 11.307-11.307v-100.112c0-6.124-5.182-11.307-11.307-11.307zM179.258 666.027c-6.36 0-11.307 4.947-11.307 11.307v69.725c0 6.36 5.182 11.307 11.307 11.307s11.307-5.182 11.307-11.307v-69.725c0-6.124-4.946-11.307-11.307-11.307zM148.87 666.026c-6.36 0-11.307 4.946-11.307 11.307v78.675c0 6.36 5.182 11.307 11.307 11.307s11.307-5.182 11.307-11.307v-78.675c0-6.124-5.182-11.307-11.307-11.307zM169.599 595.594h-11.307c-11.542 0-21.2 8.716-22.377 20.023l-5.182 49.23c-0.708 6.36 1.413 12.485 5.653 17.432s10.13 7.301 16.725 7.301h21.436c6.36 0 12.249-2.591 16.725-7.301 4.476-4.712 6.359-10.836 5.653-17.432l-4.946-49.23c-1.178-11.308-10.836-20.023-22.378-20.023zM158.528 618.208h10.836l5.182 48.76h-20.964l4.946-48.76zM334.961 394.43c-27.561 0-49.938 22.378-49.938 49.938 0 27.561 22.377 49.939 49.938 49.939 27.559 0 49.938-22.378 49.938-49.939 0-27.559-22.613-49.938-49.938-49.938zM334.961 471.458c-15.076 0-27.325-12.249-27.325-27.325s12.249-27.325 27.325-27.325c15.076 0 27.325 12.249 27.325 27.325s-12.249 27.325-27.325 27.325zM361.814 321.172h-53.943c-6.124 0-11.307 4.946-11.307 11.307v19.316l-13.662-13.662c-2.12-2.12-4.947-3.299-8.009-3.299s-5.889 1.178-8.009 3.299l-38.161 38.16c-4.475 4.476-4.475 11.542 0 16.018l13.663 13.662h-19.316c-6.36 0-11.307 4.947-11.307 11.307v53.943c0 6.124 5.182 11.307 11.307 11.307h19.316l-13.663 13.662c-4.475 4.476-4.475 11.542 0 16.018l38.161 38.161c2.12 2.119 4.946 3.298 8.009 3.298s5.889-1.178 8.009-3.298l13.662-13.663v19.316c0 6.124 4.946 11.307 11.307 11.307h53.943c6.124 0 11.307-4.946 11.307-11.307v-19.316l13.662 13.663c2.12 2.119 4.947 3.298 8.009 3.298s5.889-1.178 8.009-3.298l38.161-38.161c2.119-2.119 3.298-4.946 3.298-8.009s-1.178-5.889-3.298-8.009l-13.663-13.662h19.316c6.124 0 11.307-4.946 11.307-11.307v-53.943c0-6.124-4.946-11.307-11.307-11.307h-19.316l13.663-13.662c2.119-2.12 3.298-4.947 3.298-8.009s-1.178-5.889-3.298-8.009l-38.161-38.16c-2.12-2.12-4.946-3.299-8.009-3.299s-5.889 1.178-8.009 3.299l-13.662 13.662v-19.316c0-6.124-4.946-11.307-11.307-11.307zM319.177 343.786h31.33v18.845c0 4.946 3.062 9.186 7.773 10.835 3.298 1.178 6.831 2.591 10.128 4.24 4.476 2.12 9.658 1.414 13.191-2.119l13.427-13.427 22.143 22.143-13.427 13.427c-3.533 3.533-4.24 8.716-2.12 13.191 1.649 3.298 3.063 6.595 4.241 10.128 1.413 4.712 5.889 7.773 10.835 7.773h18.845v31.33h-18.845c-4.946 0-9.186 3.062-10.835 7.773-1.178 3.533-2.592 6.831-4.241 10.128-2.119 4.476-1.413 9.658 2.12 13.191l13.427 13.427-22.143 22.143-13.427-13.427c-3.533-3.533-8.716-4.24-13.191-2.12-3.298 1.649-6.595 3.063-10.128 4.24-4.712 1.414-7.773 5.89-7.773 10.836v18.845h-31.33v-18.845c0-4.946-3.062-9.186-7.773-10.836-3.298-1.177-6.831-2.591-10.128-4.24-4.476-2.119-9.658-1.413-13.191 2.12l-13.427 13.427-22.143-22.143 13.427-13.427c3.533-3.533 4.24-8.716 2.12-13.191-1.65-3.298-3.063-6.595-4.241-10.128-1.413-4.712-5.889-7.773-10.835-7.773h-18.845v-31.33h18.845c4.946 0 9.186-3.062 10.835-7.773 1.178-3.533 2.591-6.831 4.241-10.128 2.119-4.476 1.413-9.658-2.12-13.191l-13.427-13.427 22.143-22.143 13.427 13.427c3.533 3.533 8.716 4.24 13.191 2.119 3.298-1.649 6.595-3.062 10.128-4.24 4.712-1.413 7.773-5.889 7.773-10.835v-18.845zM667.8 590.177h-67.841c-6.124 0-11.307 4.947-11.307 11.308v198.573c0 6.36 4.947 11.307 11.307 11.307h67.841c6.124 0 11.307-5.182 11.307-11.307v-198.573c0-6.124-5.182-11.308-11.307-11.308zM611.267 612.792h45.226v175.96h-45.226v-175.96zM785.108 590.177h-67.841c-6.124 0-11.307 4.947-11.307 11.308v93.986c0 6.124 4.946 11.308 11.307 11.308h67.841c6.124 0 11.307-4.947 11.307-11.308v-93.986c0-6.124-5.182-11.308-11.307-11.308zM728.574 612.792h45.227v71.373h-45.227v-71.373zM902.416 590.175h-67.841c-6.124 0-11.307 4.947-11.307 11.308v159c0 6.36 4.946 11.307 11.307 11.307h67.841c6.124 0 11.307-5.182 11.307-11.307v-159c0-6.124-5.182-11.308-11.307-11.308zM845.882 612.789h45.227v136.386h-45.227v-136.386zM902.414 532.465h-384.428c-6.124 0-11.307 4.947-11.307 11.307s4.946 11.307 11.307 11.307h384.428c6.124 0 11.307-4.946 11.307-11.307 0-6.359-5.182-11.307-11.307-11.307zM902.413 479.701h-384.428c-6.124 0-11.307 4.946-11.307 11.307s4.946 11.307 11.307 11.307h384.428c6.124 0 11.307-4.946 11.307-11.307s-5.182-11.307-11.307-11.307zM902.413 426.937h-384.428c-6.124 0-11.307 4.947-11.307 11.308 0 6.359 4.946 11.307 11.307 11.307h384.428c6.124 0 11.307-4.947 11.307-11.307s-5.182-11.308-11.307-11.308zM902.413 373.937h-384.428c-6.124 0-11.307 4.946-11.307 11.307s4.946 11.307 11.307 11.307h384.428c6.124 0 11.307-4.946 11.307-11.307s-5.182-11.307-11.307-11.307zM902.413 321.17h-384.428c-6.124 0-11.307 4.947-11.307 11.307s4.946 11.307 11.307 11.307h384.428c6.124 0 11.307-4.946 11.307-11.307 0-6.359-5.182-11.307-11.307-11.307z" />
<glyph unicode="&#xe924;" glyph-name="happy-students" d="M355.524 719.558c-2.942-9.054-0.046-18.757 7.375-24.724l66.068-53.102-22.237-81.799c-2.496-9.184 0.865-18.735 8.572-24.339 7.707-5.591 17.824-5.839 25.791-0.626l70.922 46.426 70.925-46.428c3.823-2.503 8.142-3.746 12.452-3.746 4.672 0 9.332 1.461 13.335 4.374 7.71 5.598 11.075 15.155 8.572 24.339l-22.237 81.797 66.064 53.1c7.427 5.964 10.322 15.672 7.38 24.728-2.942 9.061-10.991 15.21-20.5 15.67l-84.667 4.128-30.087 79.244c-3.377 8.902-11.717 14.656-21.238 14.656-9.523 0-17.861-5.752-21.235-14.654l-30.090-79.248-84.66-4.126c-9.514-0.46-17.563-6.609-20.505-15.67zM468.316 707.691c9.023 0.439 16.926 6.18 20.127 14.625l23.568 62.070 23.568-62.075c3.209-8.442 11.112-14.181 20.127-14.62l66.314-3.234-51.751-41.595c-7.043-5.662-10.058-14.953-7.689-23.664l17.419-64.068-55.553 36.366c-3.777 2.471-8.108 3.709-12.438 3.709s-8.663-1.238-12.443-3.711l-55.549-36.363 17.417 64.064c2.373 8.718-0.646 18.011-7.689 23.668l-51.751 41.593 66.321 3.236zM496.012 885.284v58.716c0 8.836 7.163 16 15.999 16s15.999-7.164 15.999-16v-58.716c0-8.836-7.163-16-15.999-16s-15.999 7.164-15.999 16zM593.449 790.488c-5.912 6.566-5.382 16.684 1.183 22.596l65.431 58.916c6.567 5.914 16.684 5.384 22.599-1.184 5.912-6.566 5.382-16.684-1.186-22.596l-65.431-58.916c-3.058-2.754-6.886-4.11-10.702-4.11-4.374 0-8.734 1.784-11.894 5.294zM341.363 870.816c5.912 6.568 16.027 7.098 22.596 1.184l65.434-58.916c6.565-5.912 7.095-16.030 1.183-22.596-3.161-3.508-7.521-5.294-11.897-5.294-3.814 0-7.641 1.356-10.702 4.11l-65.431 58.916c-6.567 5.912-7.095 16.030-1.183 22.596zM717.28 694.834l66.068-53.102-22.237-81.799c-2.496-9.184 0.865-18.735 8.572-24.339 7.7-5.591 17.822-5.837 25.791-0.626l70.922 46.426 70.922-46.428c3.825-2.503 8.144-3.746 12.454-3.746 4.672 0 9.332 1.461 13.335 4.374 7.707 5.593 11.071 15.148 8.572 24.339l-22.237 81.797 66.064 53.1c7.425 5.962 10.322 15.669 7.377 24.728-2.942 9.061-10.991 15.21-20.498 15.67l-84.667 4.128-30.085 79.244c-3.379 8.902-11.717 14.656-21.238 14.656-9.525 0-17.863-5.752-21.24-14.654l-30.087-79.246-84.66-4.126c-9.514-0.46-17.563-6.611-20.505-15.672-2.945-9.057-0.048-18.764 7.375-24.724zM822.695 707.691c9.025 0.439 16.93 6.18 20.134 14.627l23.566 62.070 23.563-62.068c3.206-8.449 11.109-14.19 20.132-14.627l66.314-3.236-51.746-41.588c-7.045-5.662-10.065-14.953-7.694-23.668l17.417-64.068-55.551 36.366c-3.78 2.471-8.11 3.707-12.44 3.707-4.333 0-8.663-1.238-12.44-3.709l-55.549-36.363 17.417 64.064c2.371 8.713-0.646 18.004-7.689 23.668l-51.751 41.593 66.317 3.234zM8.513 694.834l66.070-53.102-22.238-81.799c-2.496-9.184 0.866-18.735 8.572-24.339 7.708-5.591 17.826-5.839 25.792-0.626l70.922 46.426 70.924-46.428c3.823-2.503 8.142-3.746 12.452-3.746 4.672 0 9.334 1.461 13.335 4.374 7.707 5.593 11.071 15.148 8.572 24.339l-22.237 81.797 66.066 53.1c7.418 5.96 10.317 15.663 7.375 24.74-2.947 9.052-10.995 15.201-20.498 15.661l-84.665 4.128-30.086 79.242c-3.378 8.902-11.716 14.656-21.238 14.656-9.524 0-17.862-5.752-21.24-14.654l-30.086-79.246-84.66-4.126c-9.514-0.46-17.562-6.611-20.502-15.661-2.95-9.064-0.056-18.773 7.37-24.735zM113.928 707.691c9.026 0.439 16.93 6.18 20.134 14.627l23.566 62.070 23.564-62.068c3.206-8.449 11.11-14.19 20.132-14.627l66.313-3.236-51.745-41.588c-7.046-5.662-10.066-14.953-7.694-23.668l17.418-64.068-55.552 36.366c-3.78 2.471-8.11 3.707-12.44 3.707-4.332 0-8.664-1.238-12.442-3.709l-55.548-36.363 17.418 64.064c2.37 8.713-0.646 18.004-7.69 23.668l-51.75 41.593 66.316 3.234zM1021.492 110.135c-11.257 36.357-34.315 69.002-64.931 91.926-14.655 10.973-30.615 19.522-47.45 25.573 23.34 18.32 38.382 46.76 38.382 78.666 0 55.132-44.856 99.983-99.986 99.983s-99.986-44.851-99.986-99.983c0-31.867 15.005-60.279 38.3-78.602-31.221-11.143-58.88-30.722-80.063-57.107-9.901 13.851-21.32 26.715-34.158 38.325-25.866 23.393-56.224 40.573-88.92 50.727 34.67 22.985 57.59 62.339 57.59 106.96 0 70.72-57.537 128.255-128.257 128.255s-128.257-57.535-128.257-128.255c0-44.621 22.917-83.975 57.587-106.96-32.695-10.151-63.053-27.334-88.922-50.727-12.839-11.61-24.257-24.474-34.156-38.323-21.181 26.385-48.84 45.966-80.063 57.112 23.293 18.323 38.3 46.733 38.3 78.602 0 55.132-44.856 99.983-99.984 99.983-55.132 0-99.986-44.851-99.986-99.983 0-31.903 15.040-60.345 38.38-78.666-16.836-6.053-32.796-14.6-47.454-25.575-30.614-22.922-53.672-55.567-64.93-91.921-5.202-16.791-2.32-33.833 8.114-47.989 10.432-14.154 25.86-21.945 43.44-21.945h221.185v-28.875c0-41.54 33.794-75.335 75.335-75.335h322.819c41.538 0 75.335 33.794 75.337 75.335v28.868h221.182c17.583 0 33.011 7.794 43.44 21.943 10.433 14.156 13.314 31.2 8.112 47.989zM847.508 374.283c37.488 0 67.984-30.499 67.984-67.984 0-37.488-30.497-67.984-67.984-67.984s-67.984 30.497-67.984 67.984c0 37.485 30.497 67.984 67.984 67.984zM415.755 366.601c0 53.075 43.183 96.256 96.258 96.256s96.258-43.181 96.258-96.256c0-53.059-43.154-96.229-96.206-96.256-0.018 0-0.039 0-0.055 0s-0.034 0-0.052 0c-53.052 0.030-96.204 43.199-96.204 96.256zM176.518 374.29c37.486 0 67.983-30.497 67.983-67.982 0-37.49-30.497-67.987-67.983-67.987-37.488 0-67.986 30.497-67.986 67.987 0 37.485 30.498 67.982 67.986 67.982zM277.347 72.212h-223.262c-7.364 0-13.312 3.004-17.682 8.932-4.372 5.928-5.482 12.5-3.304 19.533 19.568 63.19 77.206 105.645 143.42 105.645 50.086 0 95.711-24.201 123.773-65.167-11.093-21.552-18.864-44.781-22.944-68.943zM716.757 11.337c-0.002-23.896-19.442-43.336-43.336-43.336h-322.819c-23.893 0-43.333 19.44-43.333 43.336v44.005c11.583 104.375 99.43 182.977 204.691 183.005 0.018 0 0.036-0.002 0.055-0.002s0.036 0.002 0.052 0.002c105.258-0.030 193.104-78.63 204.691-183.005v-44.005zM987.623 81.133c-4.371-5.926-10.317-8.929-17.683-8.929h-223.259c-4.082 24.164-11.853 47.395-22.944 68.947 28.062 40.965 73.687 65.163 123.772 65.163 66.212 0 123.852-42.455 143.419-105.645 2.178-7.031 1.065-13.603-3.304-19.536z" />
<glyph unicode="&#xe925;" glyph-name="instagram" horiz-adv-x="1103" d="M561.231 676c135.693 0 247.69-112 247.69-247.692 0-137.846-111.997-247.692-247.69-247.692-137.846 0-247.692 109.846-247.692 247.692 0 135.693 109.846 247.692 247.692 247.692zM561.231 266.769c88.307 0 159.385 71.077 159.385 161.538 0 88.307-71.077 159.385-159.385 159.385-90.462 0-161.538-71.077-161.538-159.385 0-90.462 73.231-161.538 161.538-161.538zM875.693 684.616c0 32.307-25.844 58.154-58.155 58.154-32.307 0-58.154-25.847-58.154-58.154s25.847-58.155 58.154-58.155c32.311 0 58.155 25.847 58.155 58.155zM1039.384 626.461c4.309-79.692 4.309-318.769 0-398.461-4.309-77.535-21.536-144.308-77.54-202.463-55.997-55.997-124.92-73.232-202.459-77.54-79.692-4.301-318.769-4.301-398.461 0-77.538 4.309-144.308 21.543-202.461 77.54-56 58.155-73.231 124.928-77.539 202.463-4.307 79.692-4.307 318.77 0 398.461 4.308 77.539 21.539 146.462 77.539 202.462 58.154 56 124.923 73.231 202.461 77.538 79.692 4.308 318.77 4.308 398.461 0 77.539-4.308 146.462-21.538 202.459-77.538 56.005-56 73.232-124.923 77.54-202.462zM935.999 143.998c25.844 62.463 19.385 213.233 19.385 284.31 0 68.923 6.459 219.692-19.385 284.308-17.227 40.923-49.538 75.385-90.459 90.461-64.618 25.847-215.387 19.385-284.31 19.385-71.077 0-221.846 6.461-284.308-19.385-43.077-17.231-75.385-49.538-92.615-90.461-25.846-64.616-19.384-215.385-19.384-284.308 0-71.077-6.461-221.846 19.384-284.31 17.231-43.071 49.539-75.382 92.615-92.617 62.462-25.844 213.231-19.377 284.308-19.377 68.923 0 219.692-6.467 284.31 19.377 40.921 17.235 75.382 49.546 90.459 92.617z" />
<glyph unicode="&#xe926;" glyph-name="instagram-2" d="M482.462 542.462c62.462 0 114.154-51.692 114.154-114.154 0-21.539-6.461-40.923-15.077-58.154-45.231-77.539-155.077-77.539-200.308 0-43.077 75.385 10.769 172.308 101.231 172.308zM749.538 630.769c19.385-45.231 15.077-152.923 15.077-202.461 0-51.692 4.308-159.385-15.077-204.616-10.769-30.154-34.462-53.842-64.615-64.618-45.231-19.385-152.923-15.076-202.461-15.076-51.692 0-159.385-4.309-204.616 15.076-30.154 10.776-53.846 34.464-64.615 64.618-17.231 45.231-15.077 152.923-15.077 204.616 0 49.539-2.154 157.23 15.077 202.461 10.769 30.154 34.462 53.847 64.615 64.615 45.231 19.385 152.923 15.077 204.616 15.077 49.539 0 157.23 4.308 202.461-15.077 30.154-10.769 53.847-34.462 64.615-64.615zM482.462 251.692c96.923-2.154 176.616 77.539 176.616 176.616 0 30.154-8.616 60.307-23.692 88.307-68.923 116.308-239.077 116.308-308 0-66.77-118.461 17.231-264.923 155.077-264.923zM665.539 570.462c21.539 0 40.923 17.231 40.923 40.923 0 6.461-2.154 15.076-6.461 21.539-15.077 25.846-53.847 25.846-71.077 0-15.077-28 4.307-62.462 36.615-62.462zM861.538 910.769c55.997 0 103.385-47.384 103.385-103.385v-758.154c0-58.155-47.388-103.385-103.385-103.385h-758.154c-58.154 0-103.385 45.229-103.385 103.385v758.154c0 56 45.231 103.385 103.385 103.385h758.154zM822.768 286.154c4.309 56 4.309 226.154 0 282.154-2.15 56-15.076 105.539-53.845 144.308-40.923 40.923-90.462 53.846-144.308 55.999-58.154 4.308-228.308 4.308-284.308 0-55.999-2.154-105.538-15.076-144.308-53.846-40.923-40.923-53.846-90.462-56-144.308-4.307-58.154-4.307-228.308 0-284.308 2.154-55.999 15.077-105.538 56-144.306 38.769-40.921 88.308-53.847 144.308-56.005 56-4.301 226.154-4.301 284.308 0 53.846 2.158 103.385 15.084 144.308 56.005 38.769 38.768 51.695 88.307 53.845 144.306z" />
<glyph unicode="&#xe927;" glyph-name="lesson" horiz-adv-x="896" d="M896 288c0-30.003-14.003-54.003-32-73.997v-162.003c17.997-12 32-32 32-53.997 0-34.003-30.003-62.003-64-62.003h-640c-108 0-192 84-192 192v640c0 106 84 192 192 192h608c52 0 96-44 96-96v-576zM286 704c-16 0-30-16-30-32 0-18 14-32 30-32h386c16 0 32 14 32 32 0 16-16 32-33.997 32h-384.003zM286 576c-16 0-30-16-30-32 0-18 14-32 30-32h386c16 0 32 14 32 32 0 16-16 32-33.997 32h-384.003zM768 64v128h-576c-36 0-64-30.003-64-64 0-36 28-64 64-64h576z" />
<glyph unicode="&#xe928;" glyph-name="linkedin" d="M218.182-64h-202.909v652.363h202.909v-652.363zM115.637 675.636c-63.273 0-115.637 54.546-115.637 120.001 0 89.454 96 146.181 174.545 100.363 37.091-19.636 58.909-58.909 58.909-100.363 0-65.455-52.364-120.001-117.818-120.001zM975.276-64h-200.731v316.364c0 76.363-2.181 172.363-106.908 172.363s-120.001-80.728-120.001-165.818v-322.909h-202.909v652.363h194.182v-89.454h2.182c28.364 50.182 93.818 104.727 192 104.727 205.089 0 244.364-135.273 244.364-309.819v-357.818h-2.178z" />
<glyph unicode="&#xe929;" glyph-name="location" horiz-adv-x="755" d="M318.316-0.841c-98.527 123.155-318.316 416.838-318.316 583.578 0 200.842 161.053 363.789 363.789 363.789 200.844 0 363.789-162.948 363.789-363.789 0-166.74-221.684-460.423-320.211-583.578-22.737-28.424-66.316-28.424-89.052 0zM363.789 461.474c66.316 0 121.263 53.053 121.263 121.263 0 66.316-54.947 121.263-121.263 121.263-68.21 0-121.263-54.947-121.263-121.263 0-68.21 53.053-121.263 121.263-121.263z" />
<glyph unicode="&#xe92a;" glyph-name="marketing" horiz-adv-x="1336" d="M1183.646 943.347c-14.278 9.238-30.609 14.827-47.554 16.275s-33.988-1.288-49.628-7.969l-512.499-201.843c-12.132-4.938-25.11-7.477-38.209-7.476h-328.099c-27.537 0-53.947-10.939-73.418-30.411s-30.411-45.881-30.411-73.418v-8.306h-103.829v-249.188h103.829v-10.801c0.65-27.1 11.876-52.874 31.278-71.809 19.402-18.94 45.44-29.536 72.551-29.527l124.595-264.139c8.436-17.786 21.719-32.835 38.322-43.413s35.852-16.259 55.539-16.393h52.331c27.39 0.218 53.586 11.255 72.882 30.702 19.291 19.447 30.115 45.733 30.115 73.127v210.147l505.023-201.839c12.422-4.946 25.671-7.484 39.041-7.48 20.738 0.338 40.938 6.683 58.141 18.276 13.664 9.225 24.932 21.571 32.875 36.014 7.947 14.443 12.337 30.573 12.809 47.051v706.864c-0.076 16.902-4.274 33.53-12.239 48.439-7.96 14.91-19.438 27.65-33.445 37.116zM477.611 638.506v-268.295h-269.954v268.295h269.954zM477.611 48.76h-52.329l-102.168 220.115h154.497v-220.115zM612.174 357.754c-9.862 5.040-20.146 9.207-30.733 12.457v274.109c10.485 2.164 20.769 5.221 30.733 9.137l513.331 204.335v-704.375l-513.331 204.337zM1231.823 609.434v-207.657c27.537 0 53.947 10.939 73.416 30.408 19.474 19.474 30.413 45.884 30.413 73.421s-10.939 53.945-30.413 73.417c-19.469 19.472-45.88 30.411-73.416 30.411z" />
<glyph unicode="&#xe92b;" glyph-name="massage" horiz-adv-x="1317" d="M1193.143 923.429c66.86 0 123.429-56.572 123.429-123.429 0-41.143-20.568-77.143-51.427-100.285l-558.002-419.143c-30.858-23.143-69.429-23.143-100.285 0l-558 419.143c-30.857 23.142-48.857 59.143-48.857 100.285 0 66.857 54 123.429 123.429 123.429h1069.714zM558 213.716c59.143-43.717 138.857-43.717 197.997 0l560.574 421.712v-534.857c0-92.57-74.569-164.571-164.571-164.571h-987.429c-92.571 0-164.571 72.002-164.571 164.571v534.857l558-421.712z" />
<glyph unicode="&#xe92c;" glyph-name="massage-2" horiz-adv-x="1365" d="M0 789.333c0 93.333 74.667 170.667 170.667 170.667h1024c93.338 0 170.667-77.333 170.667-170.667v-682.667c0-96-77.329-170.667-170.667-170.667h-1024c-96 0-170.667 74.667-170.667 170.667v682.667zM128 789.333v-61.333l458.667-376c56-45.333 133.333-45.333 189.333 0l461.333 376v61.333c0 21.333-21.333 42.667-42.667 42.667h-1024c-24 0-42.667-21.333-42.667-42.667zM128 562.667v-456c0-23.996 18.667-42.667 42.667-42.667h1024c21.333 0 42.667 18.671 42.667 42.667v456l-378.667-309.333c-104-85.333-250.667-85.333-354.667 0l-376 309.333z" />
<glyph unicode="&#xe92d;" glyph-name="massage-3" d="M512 124c32 0 64 12 92 32l420 302.001v-428.002c0-51.998-44-93.999-96-93.999h-832c-54 0-96 42.001-96 96v426.001l418.001-302.001c27.998-22.001 59.998-32 93.999-32zM986.001 634.001c24-18.001 37.999-46.001 37.999-76.002v-21.999l-192-138.001v370.001h-640v-370.001l-192 138.001v21.999c0 30.001 12 58.001 36 76.002 18 13.999 34 25.999 60 43.998v90.001c0 52 42 96 96 96h154.001c5.999 4 11.998 8 17.999 12 33.999 24 100 84 148 82 45.999 2 112-58 146.001-82 5.999-4 11.998-8 17.999-12h156c52 0 96-44 96-96v-90.001c24-17.999 40-29.999 58.001-43.998zM352 448c-18.001 0-32 13.999-32 32 0 16 13.999 32 32 32h320c16 0 32-16 32-32s-16-32-32-32h-320zM352 576c-18.001 0-32 13.999-32 32 0 16 13.999 32 32 32h320c16 0 32-13.999 32-32 0-16-16-32-32-32h-320z" />
<glyph unicode="&#xe92e;" glyph-name="media-activities" d="M586.047 72.559h-33.49v164.092c0 4.441-1.765 8.699-4.903 11.84-3.141 3.139-7.399 4.903-11.84 4.903s-8.699-1.765-11.84-4.903c-3.139-3.141-4.903-7.399-4.903-11.84v-164.092h-435.35v334.884h139.312c4.441 0 8.7 1.765 11.84 4.903 3.14 3.141 4.903 7.399 4.903 11.84s-1.763 8.699-4.903 11.84c-3.14 3.139-7.399 4.903-11.84 4.903h-156.056c-4.441 0-8.7-1.765-11.84-4.903-3.14-3.141-4.904-7.399-4.904-11.84v-351.627h-33.488c-4.441 0-8.7-1.765-11.84-4.906-3.14-3.139-4.904-7.399-4.904-11.84v-33.487c0-22.204 8.821-43.499 24.521-59.199s36.995-24.521 59.2-24.521h435.35c22.204 0 43.499 8.821 59.199 24.521s24.521 36.995 24.521 59.199v33.487c0 4.441-1.765 8.702-4.903 11.84-3.141 3.141-7.399 4.906-11.84 4.906zM569.301 22.326c0-13.322-5.291-26.1-14.712-35.521-9.421-9.418-22.197-14.712-35.519-14.712h-33.49v16.744c0 4.441-1.765 8.702-4.903 11.84-3.141 3.141-7.399 4.906-11.84 4.906s-8.699-1.765-11.84-4.906c-3.139-3.139-4.903-7.399-4.903-11.84v-16.744h-301.396v16.744c0 4.441-1.764 8.702-4.904 11.84-3.14 3.141-7.399 4.906-11.84 4.906s-8.7-1.765-11.84-4.906c-3.14-3.139-4.904-7.399-4.904-11.84v-16.744h-33.489c-13.322 0-26.099 5.294-35.52 14.712-9.42 9.421-14.713 22.199-14.713 35.521v16.744h535.813v-16.744zM870.698 842.791h33.49c4.439 0 8.699 1.764 11.838 4.904 3.141 3.14 4.906 7.399 4.906 11.84s-1.765 8.7-4.906 11.84c-3.139 3.14-7.399 4.904-11.838 4.904h-33.49c-13.322 0-26.1-5.292-35.521-14.713-9.418-9.42-14.712-22.197-14.712-35.52v-16.744h-16.744c-4.441 0-8.699-1.764-11.84-4.904-3.139-3.14-4.903-7.399-4.903-11.84s1.765-8.7 4.903-11.84c3.141-3.14 7.399-4.904 11.84-4.904h16.744v-50.232c0-4.44 1.765-8.7 4.906-11.839 3.139-3.141 7.399-4.906 11.838-4.906 4.441 0 8.702 1.765 11.84 4.906 3.141 3.139 4.906 7.399 4.906 11.839v50.232h16.744c4.441 0 8.699 1.764 11.84 4.904 3.139 3.14 4.903 7.399 4.903 11.84s-1.765 8.7-4.903 11.84c-3.141 3.14-7.399 4.904-11.84 4.904h-16.744v16.744c0 4.441 1.765 8.7 4.903 11.84 3.141 3.14 7.399 4.904 11.84 4.904zM954.418 943.256h-200.93c-13.322 0-26.098-5.292-35.519-14.713s-14.715-22.197-14.715-35.52v-33.488c0-4.441 1.765-8.7 4.906-11.84s7.399-4.904 11.84-4.904c4.441 0 8.699 1.764 11.84 4.904 3.139 3.14 4.903 7.399 4.903 11.84v33.488c0 4.441 1.765 8.7 4.903 11.84 3.141 3.14 7.399 4.904 11.84 4.904h200.93c4.441 0 8.699-1.764 11.84-4.904s4.903-7.399 4.903-11.84v-200.93c0-4.441-1.762-8.699-4.903-11.84-3.141-3.139-7.399-4.903-11.84-4.903h-200.93c-4.441 0-8.699 1.765-11.84 4.903-3.139 3.141-4.903 7.399-4.903 11.84v100.465c0 4.441-1.765 8.7-4.903 11.84-3.141 3.14-7.399 4.904-11.84 4.904s-8.699-1.764-11.84-4.904c-3.141-3.14-4.906-7.399-4.906-11.84v-100.465c0-13.322 5.294-26.1 14.715-35.521 9.421-9.418 22.197-14.712 35.519-14.712h200.93c13.324 0 26.1 5.294 35.521 14.712 9.421 9.421 14.712 22.199 14.712 35.521v200.93c0 13.322-5.291 26.099-14.712 35.52s-22.197 14.713-35.521 14.713zM786.977 273.489c0-13.248 3.927-26.198 11.288-37.212 7.359-11.014 17.82-19.599 30.058-24.669 12.238-5.068 25.705-6.394 38.698-3.81 12.991 2.584 24.926 8.964 34.292 18.33 9.368 9.368 15.746 21.302 18.33 34.294 2.586 12.991 1.26 26.457-3.81 38.698-5.070 12.238-13.655 22.697-24.669 30.058-11.014 7.359-23.964 11.288-37.209 11.288-17.763 0-34.799-7.056-47.361-19.618-12.559-12.559-19.616-29.596-19.616-47.359zM887.441 273.489c0-6.625-1.962-13.1-5.644-18.606-3.679-5.508-8.909-9.799-15.029-12.333-6.118-2.536-12.852-3.198-19.349-1.907-6.496 1.293-12.462 4.482-17.146 9.166s-7.873 10.65-9.166 17.146c-1.291 6.496-0.629 13.231 1.907 19.349 2.534 6.12 6.827 11.35 12.333 15.029 5.508 3.679 11.983 5.644 18.606 5.644 8.88 0 17.398-3.527 23.681-9.809 6.28-6.28 9.807-14.798 9.807-23.678zM954.418 424.186h-200.93c-13.322 0-26.098-5.291-35.519-14.712s-14.715-22.197-14.715-35.521v-200.93c0-13.322 5.294-26.098 14.715-35.519s22.197-14.715 35.519-14.715h200.93c13.324 0 26.1 5.294 35.521 14.715s14.712 22.197 14.712 35.519v33.49c0 4.441-1.765 8.699-4.903 11.84-3.141 3.139-7.399 4.903-11.84 4.903s-8.699-1.765-11.84-4.903c-3.141-3.141-4.906-7.399-4.906-11.84v-33.49c0-4.441-1.762-8.699-4.903-11.84-3.141-3.139-7.399-4.903-11.84-4.903h-200.93c-4.441 0-8.699 1.765-11.84 4.903-3.139 3.141-4.903 7.399-4.903 11.84v200.93c0 4.441 1.765 8.699 4.903 11.84 3.141 3.141 7.399 4.903 11.84 4.903h200.93c4.441 0 8.699-1.762 11.84-4.903s4.903-7.399 4.903-11.84v-100.464c0-4.441 1.765-8.702 4.906-11.84 3.141-3.141 7.399-4.906 11.84-4.906s8.699 1.765 11.84 4.906c3.139 3.139 4.903 7.399 4.903 11.84v100.464c0 13.324-5.291 26.1-14.712 35.521s-22.197 14.712-35.521 14.712zM376.241 744.837c2.665-1.651 5.739-2.522 8.875-2.511 2.62 0.015 5.201 0.647 7.535 1.842l100.464 50.232c2.743 1.405 5.046 3.54 6.654 6.169 1.605 2.629 2.458 5.651 2.458 8.733s-0.853 6.104-2.458 8.733c-1.607 2.629-3.91 4.764-6.654 6.169l-100.464 50.233c-2.55 1.285-5.384 1.896-8.237 1.777-2.851-0.12-5.625-0.966-8.056-2.459-2.434-1.493-4.444-3.583-5.842-6.072s-2.136-5.294-2.146-8.148v-100.465c-0.005-2.846 0.714-5.646 2.091-8.136 1.379-2.49 3.367-4.588 5.78-6.097zM401.86 832.409l46.213-23.107-46.213-23.107v46.214zM418.604 658.603c29.806 0 58.942 8.84 83.723 25.398 24.783 16.56 44.099 40.095 55.506 67.632 11.405 27.536 14.388 57.836 8.575 87.069-5.815 29.232-20.168 56.084-41.243 77.16s-47.928 35.428-77.16 41.243c-29.234 5.815-59.533 2.83-87.069-8.576-27.538-11.406-51.074-30.721-67.632-55.503-16.56-24.782-25.398-53.918-25.398-83.723 0-39.967 15.877-78.298 44.139-106.56 28.26-28.26 66.591-44.139 106.558-44.139zM418.604 926.512c23.183 0 45.844-6.874 65.119-19.753s34.297-31.185 43.168-52.602c8.873-21.417 11.193-44.984 6.67-67.72s-15.684-43.621-32.077-60.013c-16.391-16.393-37.276-27.555-60.014-32.077-22.735-4.522-46.301-2.203-67.72 6.67-21.416 8.871-39.722 23.893-52.603 43.168-12.879 19.275-19.754 41.936-19.754 65.118 0 31.086 12.35 60.898 34.33 82.879 21.983 21.981 51.795 34.33 82.88 34.33zM586.047 591.627c2.598 0 5.163 0.607 7.487 1.769 2.327 1.162 4.348 2.851 5.908 4.929l50.233 66.977c2.662 3.553 3.808 8.018 3.179 12.414s-2.977 8.363-6.53 11.028c-3.553 2.665-8.018 3.808-12.414 3.179-4.396-0.626-8.363-2.977-11.026-6.53l-50.233-66.977c-2.665-3.551-3.81-8.018-3.182-12.414s2.977-8.361 6.53-11.026c2.898-2.174 6.423-3.351 10.047-3.351zM622.883 531.349c1.56-2.079 3.584-3.767 5.908-4.929s4.889-1.769 7.489-1.769c3.622 0 7.147 1.176 10.045 3.351l66.977 50.231c3.553 2.665 5.901 6.632 6.53 11.028s-0.517 8.861-3.179 12.414c-2.665 3.553-6.632 5.901-11.028 6.53s-8.861-0.517-12.414-3.182l-66.977-50.231c-3.553-2.665-5.901-6.632-6.53-11.028s0.517-8.861 3.179-12.414zM786.977 494.511c-0.398 2.219-1.241 4.337-2.477 6.223s-2.841 3.503-4.718 4.756c-1.877 1.25-3.986 2.11-6.204 2.524-2.217 0.417-4.494 0.379-6.696-0.107l-83.72-16.744c-2.198-0.219-4.334-0.872-6.28-1.915-1.948-1.045-3.67-2.462-5.070-4.175-2.827-3.453-4.165-7.89-3.72-12.328 0.443-4.441 2.634-8.525 6.087-11.35 3.455-2.827 7.89-4.165 12.331-3.722h3.348l83.723 16.746c2.219 0.398 4.337 1.241 6.223 2.477s3.503 2.839 4.753 4.715c1.253 1.877 2.11 3.986 2.527 6.204 0.414 2.217 0.379 4.494-0.107 6.696zM16.744 491.163h200.93c4.441 0 8.7 1.765 11.84 4.903 3.14 3.141 4.904 7.399 4.904 11.84v267.907c0 4.441-1.764 8.7-4.904 11.84s-7.399 4.904-11.84 4.904h-200.93c-4.441 0-8.7-1.764-11.84-4.904s-4.904-7.399-4.904-11.84v-267.907c0-4.441 1.764-8.699 4.904-11.84 3.14-3.139 7.399-4.903 11.84-4.903zM33.488 759.070h167.442v-234.42h-167.442v234.42zM150.698 725.581h-33.488c-4.441 0-8.7-1.764-11.84-4.904s-4.904-7.399-4.904-11.84c0-4.441 1.764-8.699 4.904-11.84 3.14-3.139 7.399-4.903 11.84-4.903h33.488c4.441 0 8.7 1.765 11.84 4.903 3.14 3.141 4.904 7.399 4.904 11.84s-1.764 8.699-4.904 11.84c-3.14 3.14-7.399 4.904-11.84 4.904zM150.698 658.603h-66.977c-4.441 0-8.7-1.762-11.84-4.903s-4.904-7.399-4.904-11.84c0-4.441 1.764-8.699 4.904-11.84 3.14-3.139 7.399-4.903 11.84-4.903h66.977c4.441 0 8.7 1.765 11.84 4.903 3.14 3.141 4.904 7.399 4.904 11.84s-1.764 8.699-4.904 11.84c-3.14 3.141-7.399 4.903-11.84 4.903zM150.698 591.627h-66.977c-4.441 0-8.7-1.762-11.84-4.903s-4.904-7.399-4.904-11.84c0-4.441 1.764-8.699 4.904-11.84 3.14-3.139 7.399-4.903 11.84-4.903h66.977c4.441 0 8.7 1.765 11.84 4.903 3.14 3.141 4.904 7.399 4.904 11.84s-1.764 8.699-4.904 11.84c-3.14 3.141-7.399 4.903-11.84 4.903zM571.311 496.185c-1.098 1.915-2.565 3.591-4.313 4.939-1.748 1.345-3.744 2.336-5.873 2.91-2.131 0.576-4.353 0.726-6.542 0.443s-4.298-0.995-6.213-2.096c-1.912-1.1-3.589-2.565-4.937-4.313-1.345-1.748-2.336-3.744-2.91-5.875-0.576-2.129-0.726-4.353-0.443-6.539 0.283-2.189 0.995-4.301 2.096-6.213l73.842-127.757-267.907-100.466c0 0 0 0-1.174 0h-1.338l-72.502-41.86c-3.815-2.205-8.025-3.634-12.393-4.21-4.367-0.574-8.804-0.281-13.060 0.862-8.547 2.308-15.83 7.906-20.26 15.572l-33.488 57.935c-3.94 7.58-4.834 16.379-2.5 24.595 2.334 8.218 7.721 15.234 15.058 19.608l57.934 33.49 41.863-72.502c1.474-2.555 3.598-4.677 6.156-6.146s5.461-2.239 8.411-2.227c2.943-0.012 5.839 0.753 8.394 2.219s4.679 3.577 6.156 6.125c1.476 2.546 2.258 5.439 2.26 8.383 0.002 2.946-0.772 5.839-2.243 8.39l-43.201 74.678 210.139 173.304 6.866-11.888c1.1-1.915 2.565-3.591 4.313-4.939 1.748-1.345 3.744-2.336 5.875-2.91 2.129-0.576 4.353-0.726 6.542-0.443 2.186 0.283 4.298 0.995 6.211 2.096s3.591 2.565 4.937 4.313c1.348 1.748 2.336 3.744 2.912 5.875 0.574 2.129 0.724 4.351 0.441 6.539s-0.995 4.298-2.093 6.213l-16.746 28.967c-1.226 2.098-2.896 3.903-4.891 5.291-1.993 1.388-4.267 2.324-6.661 2.746-2.408 0.452-4.884 0.374-7.256-0.233s-4.582-1.729-6.475-3.284l-234.417-193.226-71.331-41.191c-12.801-7.456-22.768-18.946-28.343-32.67-5.575-13.726-6.442-28.91-2.466-43.182l-16.744-9.545c-8.627-4.953-15.589-12.357-20.003-21.273s-6.081-18.942-4.789-28.808c1.291-9.864 5.483-19.123 12.043-26.603s15.193-12.843 24.805-15.408c4.261-1.131 8.652-1.693 13.060-1.677 8.809 0.038 17.459 2.343 25.116 6.699l16.744 9.545c8.043-8.311 18.159-14.322 29.303-17.415 5.72-1.6 11.638-2.389 17.579-2.343 11.771-0.029 23.333 3.093 33.49 9.042l14.567 8.371 33.49-58.101c6.654-11.507 17.599-19.906 30.434-23.359 12.838-3.451 26.519-1.677 38.048 4.941 5.72 3.293 10.735 7.685 14.758 12.919 4.020 5.237 6.97 11.212 8.683 17.587 1.71 6.377 2.148 13.029 1.286 19.573s-3.005 12.855-6.306 18.573l-30.475 53.079 251.163 94.27c2.277 0.855 4.341 2.198 6.046 3.932 1.707 1.736 3.015 3.822 3.832 6.113 0.814 2.265 1.131 4.679 0.929 7.078-0.2 2.398-0.919 4.725-2.1 6.82l-83.387 144.67zM175.814 210.027c-1.907-1.103-4.012-1.817-6.196-2.105-2.184-0.286-4.402-0.141-6.53 0.431-4.29 1.114-7.963 3.884-10.214 7.704-1.102 1.905-1.818 4.010-2.105 6.194s-0.141 4.403 0.431 6.53c0.572 2.138 1.561 4.141 2.912 5.896 1.351 1.753 3.036 3.22 4.958 4.317l14.567 8.373 16.744-28.967-14.567-8.373zM396.167 163.145c1.103-1.907 1.819-4.013 2.105-6.196 0.288-2.184 0.141-4.403-0.431-6.53-1.193-4.256-4.022-7.868-7.868-10.047-3.825-2.196-8.361-2.796-12.626-1.667-4.263 1.129-7.909 3.894-10.147 7.697l-33.487 58.101 27.796 15.908h1.338l33.32-57.265z" />
<glyph unicode="&#xe92f;" glyph-name="messenger-icon" d="M512 960c-282.8 0-512-171.8-512-384 0-150.001 115-279.599 282.199-342.799l-111.599-297.201 321 256.8c6.8-0.201 13.401-0.8 20.4-0.8 282.8 0 512 171.801 512 384s-229.2 384-512 384z" />
</font>
</defs>
</svg>
